<!--?xml version="1.0" encoding="utf-8"?-->
<!-- Generator: Adobe Illustrator 26.3.1, SVG Export Plug-In . SVG Version: 6.00 Build 0)  -->
<svg xml:space="preserve" style="enable-background:new 0 0 197.5 59.9;" viewBox="0 0 197.5 59.9" y="0px" x="0px" xmlns:xlink="http://www.w3.org/1999/xlink" xmlns="http://www.w3.org/2000/svg" id="Layer_1" version="1.1">
<style type="text/css">
	.st0{fill-rule:evenodd;clip-rule:evenodd;}
	.st1{fill-rule:evenodd;clip-rule:evenodd;fill:#EC1E3C;}
	.st2{fill:none;stroke:#939598;stroke-miterlimit:10;}
</style>
<g>
	<g>
		<polygon points="47.9,25.4 47.8,25.2 47.6,25.2 40.2,25.2 40.1,25.4 40.1,26.8 40.2,27 43.1,27 43.1,34.4 43.2,34.6 
			44.9,34.6 45,34.4 45,27 47.8,27 47.9,26.8" class="st0"></polygon>
		<polygon points="57.1,29.9 57,29 56.7,28.2 56.3,27.4 55.8,26.7 55.2,26.1 55.1,26 55.1,29.9 55.1,30.2 54.8,31.2 
			54.3,32.1 53.4,32.7 52.5,32.9 52.2,32.9 51.2,32.5 50.5,31.8 50,30.7 49.9,29.9 49.9,29.6 50.2,28.5 50.8,27.7 51.7,27.1 
			52.5,26.9 52.8,26.9 53.8,27.3 54.6,28 55,29.1 55.1,29.9 55.1,26 54,25.4 53,25.2 52.5,25.2 52.1,25.2 51.1,25.4 50.3,25.8 
			49.6,26.3 49,26.9 48.5,27.7 48.2,28.5 48,29.4 48,29.9 48,30.3 48.2,31.2 48.5,32.1 48.9,32.8 49.5,33.5 50.2,34 51.1,34.4 
			52,34.6 52.5,34.6 53,34.6 53.9,34.4 54.7,34 55.5,33.5 56,32.9 56.1,32.9 56.5,32.1 56.9,31.3 57,30.4" class="st0"></polygon>
		<polygon points="67,29.5 62.4,29.2 62.3,29.3 62.2,29.4 62.1,29.5 62.1,30.7 62.2,30.8 62.3,30.9 62.4,31 65.1,31 
			64.8,31.8 64.2,32.4 63.4,32.8 62.4,32.9 61.9,32.9 60.9,32.4 60.2,31.6 59.8,30.5 59.7,29.9 59.9,28.7 60.5,27.8 61.4,27.1 
			62.4,26.9 63.1,27 63.6,27.1 64.2,27.4 64.7,27.9 64.8,28 64.9,28 65,28 65.1,28 65.1,27.9 65.9,27.1 65.2,26 64.3,25.5 
			63.5,25.3 62.5,25.2 61.5,25.3 60.7,25.5 59.9,25.9 59.2,26.5 58.6,27.2 58.2,28 58,28.9 57.9,29.9 58,30.9 58.2,31.8 58.6,32.6 
			59.2,33.3 59.9,33.9 60.6,34.3 61.5,34.5 62.4,34.6 63.4,34.5 64.2,34.3 65,33.9 65.7,33.3 66.3,32.6 66.7,31.8 67,30.9 67,30" class="st0"></polygon>
		<polygon points="74.4,33 74.3,32.8 74.2,32.8 69.9,32.8 69.9,30.6 74.2,30.6 74.3,30.5 74.3,29.1 74.2,29 69.9,29 
			69.9,27 74.3,27 74.4,26.8 74.4,25.4 74.3,25.2 68.1,25.2 68,25.4 68,34.4 68.1,34.6 74.3,34.6 74.4,34.4" class="st0"></polygon>
		<polygon points="83,25.4 82.9,25.2 82.8,25.2 75.4,25.2 75.2,25.4 75.2,26.8 75.4,27 78.2,27 78.2,34.4 78.3,34.6 
			80,34.6 80.1,34.4 80.1,27 82.9,27 83,26.8" class="st0"></polygon>
		<polygon points="91.7,25.4 91.6,25.2 91.4,25.2 89.9,25.2 89.8,25.4 89.8,28.9 89.7,28.9 85.8,28.9 85.8,28.9 
			85.8,25.4 85.6,25.2 83.9,25.2 83.8,25.4 83.8,34.4 83.9,34.6 85.6,34.6 85.8,34.4 85.8,30.7 85.8,30.6 89.7,30.6 89.8,30.7 
			89.8,34.4 89.9,34.6 91.6,34.6 91.7,34.4" class="st0"></polygon>
		<polygon points="99.4,25.2 93.2,25.2 93.1,25.4 93.1,34.4 93.2,34.6 99.4,34.6 99.5,34.4 99.5,33 99.4,32.8 
			99.3,32.8 95.1,32.8 95.1,32.8 95.1,30.7 95.1,30.6 99.3,30.6 99.4,30.5 99.4,29.1 99.3,29 95.1,29 95.1,29 95.1,27 95.1,27 
			99.4,27 99.5,26.8 99.5,25.4" class="st0"></polygon>
		<polygon points="104.9,25.2 100.8,25.2 100.7,25.4 100.7,34.4 100.8,34.6 102.5,34.6 102.7,34.4 102.7,31.5 
			102.7,31.5 106.5,31.5 106.3,31.1 106.3,31.1 106.3,31.1 106.3,31 106.3,31 106.6,30.8 106.9,30.6 107.2,30.3 107.4,30 
			107.5,29.8 102.7,29.8 102.7,29.7 102.7,27 102.7,27 107.5,27 107.5,27 107,26.2 106.3,25.7 105.5,25.3 105.2,25.3" class="st0"></polygon>
		<polygon points="106.5,31.5 104.3,31.5 104.3,31.5 104.3,31.5 106.1,34.5 106.2,34.6 108,34.6 108.1,34.5 108.2,34.3 
			108.2,34.2" class="st0"></polygon>
		<polygon points="107.5,27 104.9,27 105,27 105.3,27.1 105.8,27.9 105.9,28.4 105.9,28.6 105.6,29.4 104.8,29.8 
			107.5,29.8 107.6,29.6 107.7,29.2 107.8,28.8 107.9,28.4 107.8,28.1 107.8,27.8 107.7,27.5 107.6,27.2" class="st0"></polygon>
		<polygon points="24.9,32 24.7,31.1 23.7,29.8 22.7,29.4 21.1,29 20.5,28.7 20,28.5 19.8,28.2 19.7,27.8 19.8,27.4 
			20.2,27.1 20.7,26.9 21.4,26.8 21.9,26.8 22.4,27 22.9,27.3 23.3,27.7 23.4,27.9 23.6,27.9 23.7,27.7 24.5,26.9 24.6,26.8 
			23.9,26 22.3,25.3 21.4,25.2 20.3,25.4 19.4,25.7 18.7,26.3 18.2,27 18.1,27.9 18.2,28.7 18.7,29.4 19.4,30 20.4,30.4 21.9,30.8 
			22.5,31 22.9,31.3 23.1,31.6 23.2,32 23.1,32.4 22.8,32.7 22.3,32.9 21.6,33 20.8,32.9 20.1,32.6 19.5,32.2 18.9,31.6 18.8,31.4 
			18.7,31.4 18.6,31.5 17.8,32.4 17.7,32.5 17.7,32.7 18.6,33.6 19.5,34.2 20.4,34.5 21.5,34.6 22.6,34.5 23.5,34.1 24.3,33.6 
			24.7,32.8" class="st1"></polygon>
		<polygon points="34.4,29.4 34.3,29.3 34.1,29.3 29.7,29.3 29.6,29.4 29.6,30.8 29.7,30.9 32.6,30.9 32.2,31.8 
			31.6,32.5 30.8,32.9 29.8,33 28.7,32.8 27.8,32.1 27.3,31.2 27.1,29.9 27.3,28.7 27.8,27.7 28.7,27.1 29.8,26.9 30.5,26.9 
			31.1,27.1 31.6,27.4 32.1,27.9 32.2,28 32.4,28 32.5,27.9 33.2,27 33.3,26.9 32.5,26 31.7,25.6 30.8,25.3 29.8,25.3 28.8,25.4 
			27.8,25.7 27,26.2 26.3,26.9 25.8,27.8 25.5,28.8 25.3,29.9 25.5,31 25.8,32 26.3,32.9 27,33.6 27.8,34.2 28.7,34.5 29.8,34.6 
			30.9,34.5 31.9,34.2 32.7,33.6 33.4,32.9 33.9,32.1 34.2,31.1 34.4,30" class="st1"></polygon>
		<polygon points="37.5,30 37.5,28.9 37.3,27.8 37.1,26.8 36.8,25.9 36.4,24.9 35.9,24 35.7,23.7 35.7,30 35.7,31 
			35.5,32.1 35.2,33.1 34.8,34 34.4,34.9 33.8,35.8 33.2,36.6 32.4,37.3 31.7,37.9 30.8,38.5 29.9,39 28.9,39.3 27.9,39.6 
			26.9,39.8 25.8,39.8 24.7,39.8 23.7,39.6 22.7,39.3 21.7,38.9 20.8,38.5 20,37.9 19.2,37.3 18.5,36.5 17.8,35.8 17.3,34.9 
			16.8,34 16.4,33 16.2,32 16,31 16,30 15.9,29.9 16,28.8 16.2,27.8 16.5,26.8 16.8,25.8 17.3,24.9 17.9,24.1 18.5,23.3 19.2,22.6 
			20,21.9 20.9,21.4 21.8,20.9 22.7,20.5 23.7,20.3 24.8,20.1 25.9,20 26.9,20.1 28,20.3 29,20.5 29.9,20.9 30.8,21.4 31.7,22 
			32.5,22.6 33.2,23.3 33.8,24.1 34.4,24.9 34.8,25.9 35.2,26.8 35.5,27.8 35.7,28.9 35.7,29.9 35.7,30 35.7,23.7 34.8,22.4 
			34.1,21.7 33.4,21 32.6,20.4 32,20 31.7,19.8 30.9,19.4 29.9,19 29,18.7 28,18.4 26.9,18.3 25.9,18.2 24.8,18.3 23.8,18.4 
			22.8,18.7 21.8,19 20.9,19.4 20,19.8 19.1,20.4 18.3,21 17.6,21.6 16.9,22.4 16.3,23.2 15.8,24 15.3,24.9 14.9,25.8 14.6,26.8 
			14.4,27.8 14.2,28.8 14.2,29.9 14.2,31 14.3,32 14.6,33 14.9,34 15.3,34.9 15.7,35.8 16.3,36.7 16.9,37.4 17.6,38.2 18.3,38.9 
			19.1,39.5 19.9,40 20.8,40.5 21.7,40.9 22.7,41.2 23.7,41.4 24.7,41.6 25.8,41.6 26.9,41.6 27.9,41.4 28.9,41.2 29.9,40.9 
			30.8,40.5 31.7,40 32.5,39.5 33.3,38.9 34.1,38.2 34.7,37.5 35.4,36.7 35.9,35.9 36.4,35 36.8,34 37.1,33.1 37.3,32.1 37.5,31 
			37.5,31" class="st1"></polygon>
	</g>
	<g>
		<path d="M124.6,18.4c0,0-0.1-0.1-0.2-0.2c-0.1-0.1-0.2-0.1-0.4-0.2c-0.1-0.1-0.3-0.1-0.5-0.2c-0.2,0-0.4-0.1-0.5-0.1
			c-0.3,0-0.6,0.1-0.7,0.2c-0.2,0.1-0.2,0.3-0.2,0.5c0,0.1,0,0.2,0.1,0.3c0.1,0.1,0.1,0.2,0.3,0.2c0.1,0.1,0.2,0.1,0.4,0.2
			c0.2,0,0.4,0.1,0.6,0.2c0.3,0.1,0.6,0.2,0.8,0.3c0.2,0.1,0.4,0.2,0.6,0.3c0.2,0.1,0.3,0.3,0.4,0.5c0.1,0.2,0.1,0.4,0.1,0.7
			c0,0.3-0.1,0.6-0.2,0.8c-0.1,0.2-0.3,0.4-0.5,0.6c-0.2,0.1-0.4,0.2-0.7,0.3c-0.3,0.1-0.5,0.1-0.8,0.1c-0.5,0-0.9-0.1-1.3-0.2
			c-0.4-0.1-0.8-0.3-1.2-0.6c0.1-0.2,0.3-0.6,0.5-1c0,0,0.1,0.1,0.3,0.2c0.1,0.1,0.3,0.2,0.5,0.2c0.2,0.1,0.4,0.2,0.6,0.2
			c0.2,0.1,0.4,0.1,0.7,0.1c0.6,0,1-0.2,1-0.6c0-0.1,0-0.2-0.1-0.3c-0.1-0.1-0.2-0.2-0.3-0.2c-0.1-0.1-0.3-0.1-0.5-0.2
			c-0.2-0.1-0.4-0.1-0.6-0.2c-0.3-0.1-0.5-0.2-0.7-0.3c-0.2-0.1-0.4-0.2-0.5-0.3c-0.1-0.1-0.2-0.3-0.3-0.4c-0.1-0.2-0.1-0.4-0.1-0.6
			c0-0.3,0.1-0.6,0.2-0.8c0.1-0.2,0.3-0.4,0.5-0.6c0.2-0.2,0.4-0.3,0.7-0.4c0.3-0.1,0.5-0.1,0.8-0.1c0.4,0,0.8,0.1,1.2,0.2
			c0.4,0.1,0.7,0.3,0.9,0.5C125,17.6,124.9,18,124.6,18.4z"></path>
		<path d="M126.2,22.8c0-1,0-3,0-6c0.2,0,0.6,0,1.2,0c0,1,0,3,0,6C127.2,22.8,126.8,22.8,126.2,22.8z"></path>
		<path d="M129.8,19c0,0.6,0,1.9,0,3.8c-0.2,0-0.6,0-1.2,0c0-1,0-3,0-6c0.1,0,0.4,0,0.9,0c0.5,0.7,1.6,2,3.1,3.9c0-0.7,0-2,0-3.9
			c0.2,0,0.6,0,1.2,0c0,1,0,3,0,6c-0.2,0-0.5,0-0.9,0C132.4,22.2,131.3,20.9,129.8,19z"></path>
		<path d="M136.5,22.6c-0.2-0.1-0.4-0.2-0.5-0.3c-0.2-0.1-0.3-0.2-0.4-0.4c-0.1-0.1-0.2-0.3-0.3-0.5c-0.1-0.2-0.2-0.3-0.3-0.5
			c-0.1-0.2-0.1-0.4-0.2-0.6c0-0.2,0-0.4,0-0.6c0-0.2,0-0.4,0-0.6c0-0.2,0.1-0.4,0.1-0.6c0.1-0.2,0.2-0.4,0.3-0.5
			c0.1-0.2,0.2-0.3,0.3-0.4c0.1-0.1,0.3-0.3,0.4-0.4c0.1-0.1,0.3-0.2,0.5-0.3c0.2-0.1,0.4-0.2,0.6-0.2c0.2,0,0.4-0.1,0.6-0.1
			c0.3,0,0.5,0,0.7,0.1c0.2,0.1,0.4,0.1,0.6,0.3c0.2,0.1,0.4,0.2,0.5,0.4c0.2,0.2,0.3,0.3,0.4,0.5c-0.2,0.2-0.5,0.4-0.9,0.7
			c0,0,0-0.1-0.1-0.1s-0.1-0.1-0.1-0.2c0-0.1-0.1-0.1-0.1-0.2c0,0-0.1-0.1-0.2-0.1c-0.1,0-0.1-0.1-0.2-0.1c-0.1,0-0.1-0.1-0.2-0.1
			c-0.1,0-0.2-0.1-0.2-0.1c-0.1,0-0.2,0-0.3,0c-0.1,0-0.3,0-0.4,0c-0.1,0-0.2,0.1-0.3,0.1c-0.1,0.1-0.2,0.1-0.3,0.2
			c-0.1,0.1-0.2,0.2-0.2,0.3c-0.1,0.1-0.1,0.2-0.2,0.3c-0.1,0.1-0.1,0.2-0.1,0.3c0,0.1-0.1,0.2-0.1,0.4c0,0.1,0,0.2,0,0.4
			c0,0.1,0,0.2,0,0.4c0,0.1,0,0.2,0.1,0.4c0,0.1,0.1,0.2,0.1,0.3c0.1,0.1,0.1,0.2,0.2,0.3c0.1,0.1,0.1,0.2,0.2,0.3
			c0.1,0.1,0.2,0.1,0.3,0.2c0.1,0.1,0.2,0.1,0.3,0.1c0.1,0,0.2,0,0.4,0c0.1,0,0.2,0,0.3,0c0.1,0,0.2,0,0.3-0.1
			c0.1,0,0.2-0.1,0.2-0.1c0.1,0,0.2-0.1,0.2-0.1c0.1-0.1,0.1-0.1,0.2-0.2c0.1-0.1,0.1-0.1,0.2-0.2c0-0.1,0.1-0.1,0.1-0.2
			c0-0.1,0.1-0.1,0.1-0.2c-0.3,0-0.7,0-1.3,0c0-0.2,0-0.6,0-1c0.6,0,1.4,0,2.6,0c0,0,0,0,0,0c0,0,0,0,0,0.1c0,0,0,0.1,0,0.1
			c0,0,0,0.1,0,0.1c0,0,0,0.1,0,0.1c0,0,0,0.1,0,0.1c0,0,0,0.1,0,0.1s0,0,0,0c0,0.2,0,0.3-0.1,0.5c0,0.2-0.1,0.3-0.1,0.5
			c-0.1,0.2-0.1,0.3-0.2,0.5c-0.1,0.1-0.2,0.3-0.3,0.4c-0.1,0.1-0.2,0.2-0.4,0.3c-0.1,0.1-0.3,0.2-0.5,0.3c-0.2,0.1-0.3,0.1-0.5,0.2
			c-0.2,0-0.4,0-0.6,0c-0.2,0-0.4,0-0.6-0.1C136.8,22.7,136.6,22.7,136.5,22.6z"></path>
		<path d="M142.9,16.8c0.2,0,0.5,0,1,0c0.4,1,1.1,3,2.3,6c-0.2,0-0.6,0-1.2,0c-0.1-0.2-0.3-0.7-0.6-1.5c-0.3,0-1,0-2.1,0
			c-0.1,0.2-0.3,0.7-0.5,1.5c-0.2,0-0.6,0-1.2,0C141,21.8,141.8,19.8,142.9,16.8z M144.2,20.5c-0.1-0.4-0.4-1.2-0.8-2.3
			c-0.1,0.4-0.4,1.2-0.9,2.3C142.8,20.5,143.4,20.5,144.2,20.5z"></path>
		<path d="M146.9,22.8c0-1,0-3,0-6c0.4,0,1.3,0,2.5,0c0.3,0,0.5,0.1,0.8,0.2c0.2,0.1,0.4,0.3,0.6,0.5c0.2,0.2,0.3,0.4,0.4,0.6
			c0.1,0.2,0.1,0.5,0.1,0.7c0,0.3,0,0.5-0.1,0.7c-0.1,0.2-0.2,0.5-0.4,0.6c-0.2,0.2-0.4,0.3-0.6,0.4c-0.2,0.1-0.5,0.2-0.8,0.2
			c-0.3,0-0.8,0-1.4,0c0,0.3,0,1,0,2C147.8,22.8,147.5,22.8,146.9,22.8z M148,19.8c0.2,0,0.7,0,1.4,0c0.2,0,0.4-0.1,0.5-0.3
			c0.1-0.2,0.2-0.4,0.2-0.7c0-0.2,0-0.3-0.1-0.4c0-0.1-0.1-0.2-0.2-0.3c-0.1-0.1-0.2-0.2-0.3-0.2c-0.1,0-0.2-0.1-0.3-0.1
			c-0.3,0-0.7,0-1.3,0C148,18.1,148,18.8,148,19.8z"></path>
		<path d="M154.7,22.8c-0.4,0-0.8-0.1-1.2-0.3c-0.4-0.2-0.7-0.4-0.9-0.7c-0.3-0.3-0.5-0.6-0.6-1c-0.1-0.4-0.2-0.7-0.2-1.1
			c0-0.4,0.1-0.8,0.2-1.1c0.1-0.4,0.4-0.7,0.6-1c0.3-0.3,0.6-0.5,0.9-0.7c0.4-0.2,0.7-0.2,1.2-0.2c0.4,0,0.8,0.1,1.2,0.3
			c0.4,0.2,0.7,0.4,0.9,0.7c0.3,0.3,0.5,0.6,0.6,1c0.1,0.4,0.2,0.7,0.2,1.1c0,0.4-0.1,0.8-0.2,1.1c-0.1,0.4-0.4,0.7-0.6,1
			c-0.3,0.3-0.6,0.5-0.9,0.7C155.5,22.8,155.1,22.8,154.7,22.8z M152.9,19.8c0,0.3,0,0.5,0.1,0.8c0.1,0.2,0.2,0.5,0.3,0.6
			c0.2,0.2,0.3,0.3,0.6,0.5c0.2,0.1,0.5,0.2,0.7,0.2c0.3,0,0.5-0.1,0.7-0.2c0.2-0.1,0.4-0.3,0.5-0.5c0.1-0.2,0.3-0.4,0.3-0.6
			c0.1-0.2,0.1-0.5,0.1-0.7c0-0.3,0-0.5-0.1-0.7c-0.1-0.2-0.2-0.5-0.3-0.6c-0.1-0.2-0.3-0.3-0.5-0.4c-0.2-0.1-0.5-0.2-0.7-0.2
			c-0.3,0-0.5,0.1-0.8,0.2c-0.2,0.1-0.4,0.3-0.6,0.5c-0.1,0.2-0.3,0.4-0.3,0.6C153,19.3,152.9,19.5,152.9,19.8z"></path>
		<path d="M158.5,22.8c0-1,0-3,0-6c0.4,0,1.3,0,2.6,0c0.3,0,0.5,0.1,0.8,0.2c0.2,0.1,0.4,0.3,0.6,0.5c0.2,0.2,0.3,0.4,0.4,0.6
			c0.1,0.2,0.1,0.5,0.1,0.7c0,0.4-0.1,0.7-0.3,1.1c-0.2,0.3-0.5,0.5-0.8,0.7c0.3,0.5,0.8,1.2,1.4,2.2c-0.2,0-0.7,0-1.3,0
			c-0.2-0.3-0.6-1-1.2-2c-0.2,0-0.6,0-1.1,0c0,0.3,0,1,0,2C159.5,22.8,159.1,22.8,158.5,22.8z M159.7,19.8c0.2,0,0.7,0,1.5,0
			c0.1,0,0.2,0,0.3-0.1c0.1,0,0.2-0.1,0.2-0.2c0.1-0.1,0.1-0.2,0.2-0.3c0-0.1,0.1-0.2,0.1-0.4c0-0.1,0-0.3-0.1-0.4
			c0-0.1-0.1-0.2-0.2-0.3c-0.1-0.1-0.2-0.2-0.3-0.2c-0.1,0-0.2-0.1-0.3-0.1c-0.3,0-0.8,0-1.4,0C159.7,18.1,159.7,18.8,159.7,19.8z"></path>
		<path d="M168.3,21.8c0,0.2,0,0.5,0,1c-0.7,0-2.1,0-4.2,0c0-1,0-3,0-6c0.7,0,2,0,4.1,0c0,0.2,0,0.5,0,1c-0.5,0-1.5,0-2.9,0
			c0,0.2,0,0.7,0,1.4c0.4,0,1.3,0,2.5,0c0,0.2,0,0.5,0,0.9c-0.4,0-1.3,0-2.5,0c0,0.3,0,0.8,0,1.6C165.8,21.8,166.8,21.8,168.3,21.8z"></path>
		<path d="M121.1,32.9c0-1,0-3,0-6c0.4,0,1.3,0,2.5,0c0.3,0,0.5,0.1,0.8,0.2c0.2,0.1,0.4,0.3,0.6,0.5c0.2,0.2,0.3,0.4,0.4,0.6
			c0.1,0.2,0.1,0.5,0.1,0.7c0,0.3,0,0.5-0.1,0.7c-0.1,0.2-0.2,0.5-0.4,0.6c-0.2,0.2-0.4,0.3-0.6,0.4c-0.2,0.1-0.5,0.2-0.8,0.2
			c-0.3,0-0.8,0-1.4,0c0,0.3,0,1,0,2C122,32.9,121.6,32.9,121.1,32.9z M122.2,29.9c0.2,0,0.7,0,1.4,0c0.2,0,0.4-0.1,0.5-0.3
			c0.1-0.2,0.2-0.4,0.2-0.7c0-0.2,0-0.3-0.1-0.4c0-0.1-0.1-0.2-0.2-0.3c-0.1-0.1-0.2-0.2-0.3-0.2c-0.1,0-0.2-0.1-0.3-0.1
			c-0.3,0-0.7,0-1.3,0C122.2,28.3,122.2,28.9,122.2,29.9z"></path>
		<path d="M128,26.9c0.2,0,0.5,0,1,0c0.4,1,1.1,3,2.3,6c-0.2,0-0.6,0-1.2,0c-0.1-0.2-0.3-0.7-0.6-1.5c-0.3,0-1,0-2.1,0
			c-0.1,0.2-0.3,0.7-0.5,1.5c-0.2,0-0.6,0-1.2,0C126.1,31.9,126.9,29.9,128,26.9z M129.4,30.6c-0.1-0.4-0.4-1.2-0.8-2.3
			c-0.1,0.4-0.4,1.2-0.9,2.3C128,30.6,128.5,30.6,129.4,30.6z"></path>
		<path d="M132,32.9c0-1,0-3,0-6c0.4,0,1.3,0,2.6,0c0.3,0,0.5,0.1,0.8,0.2c0.2,0.1,0.4,0.3,0.6,0.5c0.2,0.2,0.3,0.4,0.4,0.6
			c0.1,0.2,0.1,0.5,0.1,0.7c0,0.4-0.1,0.7-0.3,1.1c-0.2,0.3-0.5,0.5-0.8,0.7c0.3,0.5,0.8,1.2,1.4,2.2c-0.2,0-0.7,0-1.3,0
			c-0.2-0.3-0.6-1-1.2-2c-0.2,0-0.6,0-1.1,0c0,0.3,0,1,0,2C133,32.9,132.6,32.9,132,32.9z M133.1,29.9c0.2,0,0.7,0,1.5,0
			c0.1,0,0.2,0,0.3-0.1c0.1,0,0.2-0.1,0.2-0.2c0.1-0.1,0.1-0.2,0.2-0.3c0-0.1,0.1-0.2,0.1-0.4c0-0.1,0-0.3-0.1-0.4
			c0-0.1-0.1-0.2-0.2-0.3c-0.1-0.1-0.2-0.2-0.3-0.2c-0.1,0-0.2-0.1-0.3-0.1c-0.3,0-0.8,0-1.4,0C133.1,28.3,133.1,28.9,133.1,29.9z"></path>
		<path d="M142.1,28c-0.3,0-1,0-1.9,0c0,0.8,0,2.5,0,5c-0.2,0-0.6,0-1.2,0c0-0.8,0-2.5,0-5c-0.3,0-1,0-1.9,0c0-0.2,0-0.5,0-1
			c0.8,0,2.5,0,5,0C142.1,27.1,142.1,27.4,142.1,28z"></path>
		<path d="M144,29.1c0,0.6,0,1.9,0,3.8c-0.2,0-0.6,0-1.2,0c0-1,0-3,0-6c0.1,0,0.4,0,0.9,0c0.5,0.7,1.6,2,3.1,3.9c0-0.7,0-2,0-3.9
			c0.2,0,0.6,0,1.2,0c0,1,0,3,0,6c-0.2,0-0.5,0-0.9,0C146.5,32.3,145.5,31,144,29.1z"></path>
		<path d="M153.4,31.9c0,0.2,0,0.5,0,1c-0.7,0-2.1,0-4.2,0c0-1,0-3,0-6c0.7,0,2,0,4.1,0c0,0.2,0,0.5,0,1c-0.5,0-1.5,0-2.9,0
			c0,0.2,0,0.7,0,1.4c0.4,0,1.3,0,2.5,0c0,0.2,0,0.5,0,0.9c-0.4,0-1.3,0-2.5,0c0,0.3,0,0.8,0,1.6C150.9,31.9,151.9,31.9,153.4,31.9z"></path>
		<path d="M154.3,32.9c0-1,0-3,0-6c0.4,0,1.3,0,2.6,0c0.3,0,0.5,0.1,0.8,0.2c0.2,0.1,0.4,0.3,0.6,0.5c0.2,0.2,0.3,0.4,0.4,0.6
			c0.1,0.2,0.1,0.5,0.1,0.7c0,0.4-0.1,0.7-0.3,1.1c-0.2,0.3-0.5,0.5-0.8,0.7c0.3,0.5,0.8,1.2,1.4,2.2c-0.2,0-0.7,0-1.3,0
			c-0.2-0.3-0.6-1-1.2-2c-0.2,0-0.6,0-1.1,0c0,0.3,0,1,0,2C155.3,32.9,154.9,32.9,154.3,32.9z M155.5,29.9c0.2,0,0.7,0,1.5,0
			c0.1,0,0.2,0,0.3-0.1c0.1,0,0.2-0.1,0.2-0.2c0.1-0.1,0.1-0.2,0.2-0.3c0-0.1,0.1-0.2,0.1-0.4c0-0.1,0-0.3-0.1-0.4
			c0-0.1-0.1-0.2-0.2-0.3c-0.1-0.1-0.2-0.2-0.3-0.2c-0.1,0-0.2-0.1-0.3-0.1c-0.3,0-0.8,0-1.4,0C155.5,28.3,155.5,28.9,155.5,29.9z"></path>
		<path d="M163.5,28.5c0,0-0.1-0.1-0.2-0.2c-0.1-0.1-0.2-0.1-0.4-0.2c-0.1-0.1-0.3-0.1-0.5-0.2c-0.2,0-0.4-0.1-0.5-0.1
			c-0.3,0-0.6,0.1-0.7,0.2c-0.2,0.1-0.2,0.3-0.2,0.5c0,0.1,0,0.2,0.1,0.3c0.1,0.1,0.1,0.2,0.3,0.2c0.1,0.1,0.2,0.1,0.4,0.2
			c0.2,0,0.4,0.1,0.6,0.2c0.3,0.1,0.6,0.2,0.8,0.3c0.2,0.1,0.4,0.2,0.6,0.3c0.2,0.1,0.3,0.3,0.4,0.5c0.1,0.2,0.1,0.4,0.1,0.7
			c0,0.3-0.1,0.6-0.2,0.8c-0.1,0.2-0.3,0.4-0.5,0.6c-0.2,0.1-0.4,0.2-0.7,0.3c-0.3,0.1-0.5,0.1-0.8,0.1c-0.5,0-0.9-0.1-1.3-0.2
			c-0.4-0.1-0.8-0.3-1.2-0.6c0.1-0.2,0.3-0.6,0.5-1c0,0,0.1,0.1,0.3,0.2c0.1,0.1,0.3,0.2,0.5,0.2c0.2,0.1,0.4,0.2,0.6,0.2
			c0.2,0.1,0.4,0.1,0.7,0.1c0.6,0,1-0.2,1-0.6c0-0.1,0-0.2-0.1-0.3c-0.1-0.1-0.2-0.2-0.3-0.2c-0.1-0.1-0.3-0.1-0.5-0.2
			c-0.2-0.1-0.4-0.1-0.6-0.2c-0.3-0.1-0.5-0.2-0.7-0.3c-0.2-0.1-0.4-0.2-0.5-0.3c-0.1-0.1-0.2-0.3-0.3-0.4c-0.1-0.2-0.1-0.4-0.1-0.6
			c0-0.3,0.1-0.6,0.2-0.8c0.1-0.2,0.3-0.4,0.5-0.6c0.2-0.2,0.4-0.3,0.7-0.4c0.3-0.1,0.5-0.1,0.8-0.1c0.4,0,0.8,0.1,1.2,0.2
			c0.4,0.1,0.7,0.3,0.9,0.5C163.9,27.8,163.7,28.1,163.5,28.5z"></path>
		<path d="M170.1,26.9c0,1,0,3,0,6c-0.2,0-0.6,0-1.2,0c0-0.4,0-1.3,0-2.6c-0.5,0-1.4,0-2.7,0c0,0.4,0,1.3,0,2.6c-0.2,0-0.6,0-1.2,0
			c0-1,0-3,0-6c0.2,0,0.6,0,1.2,0c0,0.4,0,1.2,0,2.4c0.5,0,1.4,0,2.7,0c0-0.4,0-1.2,0-2.4C169.2,26.9,169.6,26.9,170.1,26.9z"></path>
		<path d="M171.4,32.9c0-1,0-3,0-6c0.2,0,0.6,0,1.2,0c0,1,0,3,0,6C172.4,32.9,172,32.9,171.4,32.9z"></path>
		<path d="M173.8,32.9c0-1,0-3,0-6c0.4,0,1.3,0,2.5,0c0.3,0,0.5,0.1,0.8,0.2c0.2,0.1,0.4,0.3,0.6,0.5c0.2,0.2,0.3,0.4,0.4,0.6
			c0.1,0.2,0.1,0.5,0.1,0.7c0,0.3,0,0.5-0.1,0.7c-0.1,0.2-0.2,0.5-0.4,0.6c-0.2,0.2-0.4,0.3-0.6,0.4c-0.2,0.1-0.5,0.2-0.8,0.2
			c-0.3,0-0.8,0-1.4,0c0,0.3,0,1,0,2C174.8,32.9,174.4,32.9,173.8,32.9z M175,29.9c0.2,0,0.7,0,1.4,0c0.2,0,0.4-0.1,0.5-0.3
			c0.1-0.2,0.2-0.4,0.2-0.7c0-0.2,0-0.3-0.1-0.4c0-0.1-0.1-0.2-0.2-0.3c-0.1-0.1-0.2-0.2-0.3-0.2c-0.1,0-0.2-0.1-0.3-0.1
			c-0.3,0-0.7,0-1.3,0C175,28.3,175,28.9,175,29.9z"></path>
		<path d="M182.6,28.5c0,0-0.1-0.1-0.2-0.2c-0.1-0.1-0.2-0.1-0.4-0.2c-0.1-0.1-0.3-0.1-0.5-0.2s-0.4-0.1-0.5-0.1
			c-0.3,0-0.6,0.1-0.7,0.2c-0.2,0.1-0.2,0.3-0.2,0.5c0,0.1,0,0.2,0.1,0.3c0.1,0.1,0.1,0.2,0.3,0.2c0.1,0.1,0.2,0.1,0.4,0.2
			c0.2,0,0.4,0.1,0.6,0.2c0.3,0.1,0.6,0.2,0.8,0.3c0.2,0.1,0.4,0.2,0.6,0.3c0.2,0.1,0.3,0.3,0.4,0.5c0.1,0.2,0.1,0.4,0.1,0.7
			c0,0.3-0.1,0.6-0.2,0.8c-0.1,0.2-0.3,0.4-0.5,0.6c-0.2,0.1-0.4,0.2-0.7,0.3c-0.3,0.1-0.5,0.1-0.8,0.1c-0.5,0-0.9-0.1-1.3-0.2
			c-0.4-0.1-0.8-0.3-1.2-0.6c0.1-0.2,0.3-0.6,0.5-1c0,0,0.1,0.1,0.3,0.2c0.1,0.1,0.3,0.2,0.5,0.2c0.2,0.1,0.4,0.2,0.6,0.2
			c0.2,0.1,0.4,0.1,0.7,0.1c0.6,0,1-0.2,1-0.6c0-0.1,0-0.2-0.1-0.3c-0.1-0.1-0.2-0.2-0.3-0.2c-0.1-0.1-0.3-0.1-0.5-0.2
			c-0.2-0.1-0.4-0.1-0.6-0.2c-0.3-0.1-0.5-0.2-0.7-0.3c-0.2-0.1-0.4-0.2-0.5-0.3c-0.1-0.1-0.2-0.3-0.3-0.4c-0.1-0.2-0.1-0.4-0.1-0.6
			c0-0.3,0.1-0.6,0.2-0.8c0.1-0.2,0.3-0.4,0.5-0.6c0.2-0.2,0.4-0.3,0.7-0.4c0.3-0.1,0.5-0.1,0.8-0.1c0.4,0,0.8,0.1,1.2,0.2
			c0.4,0.1,0.7,0.3,0.9,0.5C183,27.8,182.9,28.1,182.6,28.5z"></path>
		<path d="M123.6,43.1c-0.4,0-0.8-0.1-1.2-0.3c-0.4-0.2-0.7-0.4-0.9-0.7c-0.3-0.3-0.5-0.6-0.6-1c-0.1-0.4-0.2-0.7-0.2-1.1
			c0-0.4,0.1-0.8,0.2-1.1c0.1-0.4,0.4-0.7,0.6-1c0.3-0.3,0.6-0.5,0.9-0.7c0.4-0.2,0.7-0.2,1.2-0.2c0.4,0,0.8,0.1,1.2,0.3
			c0.4,0.2,0.7,0.4,0.9,0.7c0.3,0.3,0.5,0.6,0.6,1c0.1,0.4,0.2,0.7,0.2,1.1c0,0.4-0.1,0.8-0.2,1.1c-0.1,0.4-0.4,0.7-0.6,1
			c-0.3,0.3-0.6,0.5-0.9,0.7C124.4,43,124,43.1,123.6,43.1z M121.9,40c0,0.3,0,0.5,0.1,0.8c0.1,0.2,0.2,0.5,0.3,0.6
			c0.2,0.2,0.3,0.3,0.6,0.5c0.2,0.1,0.5,0.2,0.7,0.2c0.3,0,0.5-0.1,0.7-0.2c0.2-0.1,0.4-0.3,0.5-0.5c0.1-0.2,0.3-0.4,0.3-0.6
			c0.1-0.2,0.1-0.5,0.1-0.7c0-0.3,0-0.5-0.1-0.7c-0.1-0.2-0.2-0.5-0.3-0.6c-0.1-0.2-0.3-0.3-0.5-0.4c-0.2-0.1-0.5-0.2-0.7-0.2
			c-0.3,0-0.5,0.1-0.7,0.2c-0.2,0.1-0.4,0.3-0.6,0.5c-0.1,0.2-0.3,0.4-0.3,0.6C121.9,39.6,121.9,39.8,121.9,40z"></path>
		<path d="M127.4,43c0-1,0-3,0-6c0.7,0,2,0,4,0c0,0.2,0,0.5,0,1c-0.5,0-1.4,0-2.9,0c0,0.3,0,0.8,0,1.5c0.4,0,1.2,0,2.4,0
			c0,0.2,0,0.5,0,0.9c-0.4,0-1.2,0-2.4,0c0,0.4,0,1.2,0,2.5C128.4,43,128,43,127.4,43z"></path>
		<path d="M132.3,43c0-1,0-3,0-6c0.7,0,2,0,4,0c0,0.2,0,0.5,0,1c-0.5,0-1.4,0-2.9,0c0,0.3,0,0.8,0,1.5c0.4,0,1.2,0,2.4,0
			c0,0.2,0,0.5,0,0.9c-0.4,0-1.2,0-2.4,0c0,0.4,0,1.2,0,2.5C133.3,43,132.9,43,132.3,43z"></path>
		<path d="M137.1,43c0-1,0-3,0-6c0.2,0,0.6,0,1.2,0c0,1,0,3,0,6C138.1,43,137.7,43,137.1,43z"></path>
		<path d="M139.2,40c0-0.4,0.1-0.7,0.2-1.1c0.1-0.4,0.3-0.7,0.6-1c0.3-0.3,0.6-0.5,0.9-0.7c0.4-0.2,0.8-0.3,1.2-0.3
			c0.5,0,1,0.1,1.4,0.4c0.4,0.2,0.7,0.6,0.9,0.9c-0.2,0.1-0.5,0.3-0.9,0.6c-0.1-0.2-0.2-0.3-0.3-0.4c-0.1-0.1-0.2-0.2-0.4-0.3
			c-0.1-0.1-0.3-0.1-0.4-0.1c-0.1,0-0.3,0-0.4,0c-0.3,0-0.5,0.1-0.8,0.2c-0.2,0.1-0.4,0.3-0.5,0.5c-0.1,0.2-0.2,0.4-0.3,0.6
			c-0.1,0.2-0.1,0.5-0.1,0.7c0,0.3,0,0.5,0.1,0.8c0.1,0.2,0.2,0.5,0.4,0.6c0.2,0.2,0.3,0.3,0.6,0.5c0.2,0.1,0.5,0.2,0.7,0.2
			c0.1,0,0.3,0,0.4,0c0.1,0,0.3-0.1,0.4-0.2c0.1-0.1,0.3-0.2,0.4-0.3c0.1-0.1,0.2-0.3,0.3-0.4c0.2,0.1,0.5,0.3,1,0.5
			c-0.1,0.2-0.2,0.4-0.4,0.6c-0.2,0.2-0.4,0.3-0.6,0.4c-0.2,0.1-0.5,0.2-0.7,0.3c-0.3,0.1-0.5,0.1-0.7,0.1c-0.4,0-0.8-0.1-1.2-0.3
			c-0.4-0.2-0.7-0.4-0.9-0.7c-0.3-0.3-0.5-0.6-0.6-1C139.3,40.8,139.2,40.4,139.2,40z"></path>
		<path d="M149.5,42c0,0.2,0,0.5,0,1c-0.7,0-2.1,0-4.2,0c0-1,0-3,0-6c0.7,0,2,0,4.1,0c0,0.2,0,0.5,0,1c-0.5,0-1.5,0-2.9,0
			c0,0.2,0,0.7,0,1.4c0.4,0,1.3,0,2.5,0c0,0.2,0,0.5,0,0.9c-0.4,0-1.3,0-2.5,0c0,0.3,0,0.8,0,1.6C147,42,148,42,149.5,42z"></path>
	</g>
	<line y2="43.7" x2="114.3" y1="16.2" x1="114.3" class="st2"></line>
</g>
</svg>
