<!--?xml version="1.0" encoding="utf-8"?-->
<!-- Generator: Adobe Illustrator 26.3.1, SVG Export Plug-In . SVG Version: 6.00 Build 0)  -->
<svg xml:space="preserve" style="enable-background:new 0 0 164.8 59.9;" viewBox="0 0 164.8 59.9" y="0px" x="0px" xmlns:xlink="http://www.w3.org/1999/xlink" xmlns="http://www.w3.org/2000/svg" id="Layer_1" version="1.1">
<style type="text/css">
	.st0{fill-rule:evenodd;clip-rule:evenodd;}
	.st1{fill-rule:evenodd;clip-rule:evenodd;fill:#EC1E3C;}
	.st2{fill:none;stroke:#939598;stroke-miterlimit:10;}
</style>
<g>
	<g>
		<polygon points="39,26 38.9,25.9 38.8,25.9 32.5,25.9 32.4,26 32.4,27.3 32.5,27.4 34.8,27.4 34.8,33.8 35,33.9 
			36.4,33.9 36.5,33.8 36.5,27.4 38.9,27.4 39,27.3" class="st0"></polygon>
		<polygon points="46.8,29.9 46.7,29.2 46.5,28.4 46.2,27.8 45.7,27.2 45.2,26.6 45.1,26.6 45.1,29.9 45.1,30.1 
			44.9,31.1 44.4,31.8 43.7,32.3 42.9,32.5 42.7,32.4 41.8,32.1 41.2,31.5 40.8,30.6 40.7,29.9 40.7,29.7 40.9,28.8 41.4,28 
			42.2,27.5 42.9,27.4 43.2,27.4 44,27.7 44.7,28.3 45,29.2 45.1,29.9 45.1,26.6 44.2,26.1 43.4,25.9 42.9,25.9 42.5,25.9 
			41.8,26.1 41,26.4 40.4,26.8 39.9,27.4 39.5,28 39.2,28.7 39.1,29.5 39,29.9 39.1,30.3 39.2,31 39.5,31.7 39.9,32.4 40.4,32.9 
			41,33.4 41.7,33.7 42.5,33.9 42.9,33.9 43.3,33.9 44.1,33.7 44.8,33.4 45.4,33 45.9,32.5 45.9,32.4 46.3,31.8 46.6,31.1 
			46.8,30.3" class="st0"></polygon>
		<polygon points="55.3,29.5 51.3,29.3 51.3,29.4 51.2,29.5 51.1,29.5 51.1,30.6 51.2,30.7 51.3,30.8 51.3,30.8 
			53.7,30.8 53.4,31.5 52.9,32.1 52.2,32.4 51.4,32.5 50.9,32.4 50.1,32.1 49.4,31.4 49.1,30.4 49.1,29.9 49.3,28.9 49.7,28.1 
			50.5,27.5 51.4,27.4 51.9,27.4 52.4,27.6 52.9,27.8 53.3,28.2 53.4,28.2 53.4,28.3 53.6,28.3 53.7,28.2 53.7,28.2 54.3,27.5 
			53.7,26.5 53,26.2 52.3,26 51.4,25.9 50.6,26 49.9,26.2 49.2,26.5 48.6,27 48.1,27.6 47.8,28.3 47.6,29.1 47.5,29.9 47.6,30.7 
			47.8,31.5 48.1,32.2 48.6,32.8 49.2,33.3 49.8,33.6 50.6,33.9 51.4,33.9 52.2,33.9 52.9,33.7 53.6,33.3 54.2,32.8 54.7,32.2 
			55,31.5 55.2,30.8 55.3,30" class="st0"></polygon>
		<polygon points="61.6,32.5 61.5,32.4 61.4,32.4 57.8,32.4 57.8,30.5 61.4,30.5 61.5,30.4 61.5,29.2 61.4,29.1 
			57.8,29.1 57.8,27.4 61.5,27.4 61.6,27.3 61.6,26 61.5,25.9 56.2,25.9 56.1,26 56.1,33.8 56.2,33.9 61.5,33.9 61.6,33.8" class="st0"></polygon>
		<polygon points="69,26 68.9,25.9 68.7,25.9 62.4,25.9 62.3,26 62.3,27.3 62.4,27.4 64.8,27.4 64.8,33.8 64.9,33.9 
			66.4,33.9 66.5,33.8 66.5,27.4 68.9,27.4 69,27.3" class="st0"></polygon>
		<polygon points="76.3,26 76.2,25.9 76.1,25.9 74.8,25.9 74.7,26 74.7,29 74.7,29.1 71.3,29.1 71.3,29 71.3,26 
			71.2,25.9 69.7,25.9 69.6,26 69.6,33.8 69.7,33.9 71.2,33.9 71.3,33.8 71.3,30.6 71.3,30.5 74.7,30.5 74.7,30.6 74.7,33.8 
			74.8,33.9 76.2,33.9 76.3,33.8" class="st0"></polygon>
		<polygon points="82.9,25.9 77.7,25.9 77.6,26 77.6,33.8 77.7,33.9 82.9,33.9 83,33.8 83,32.5 82.9,32.4 82.8,32.4 
			79.3,32.4 79.2,32.4 79.2,30.5 79.3,30.5 82.8,30.5 82.9,30.4 82.9,29.2 82.8,29.1 79.3,29.1 79.2,29.1 79.2,27.4 79.3,27.4 
			82.9,27.4 83,27.3 83,26" class="st0"></polygon>
		<polygon points="87.6,25.9 84.2,25.9 84.1,26 84.1,33.8 84.2,33.9 85.6,33.9 85.7,33.8 85.7,31.3 85.8,31.3 89,31.3 
			88.8,31 88.8,30.9 88.8,30.9 88.8,30.9 88.9,30.9 89.1,30.7 89.4,30.5 89.6,30.3 89.8,30 89.9,29.8 85.8,29.8 85.7,29.7 
			85.7,27.4 85.8,27.4 89.8,27.4 89.8,27.4 89.4,26.8 88.8,26.3 88.1,26 87.9,25.9" class="st0"></polygon>
		<polygon points="89,31.3 87.1,31.3 87.1,31.3 87.1,31.3 88.7,33.8 88.7,33.9 90.2,33.9 90.3,33.8 90.4,33.7 
			90.4,33.6" class="st0"></polygon>
		<polygon points="89.8,27.4 87.6,27.4 87.7,27.4 88,27.5 88.4,28.2 88.5,28.6 88.5,28.8 88.2,29.4 87.5,29.8 
			89.9,29.8 89.9,29.7 90,29.3 90.1,29 90.1,28.6 90.1,28.4 90.1,28.1 90,27.9 89.9,27.6" class="st0"></polygon>
		<polygon points="19.3,31.7 19.2,30.9 18.3,29.8 17.5,29.5 16.1,29.1 15.6,28.9 15.2,28.7 15,28.4 14.9,28.1 15,27.8 
			15.3,27.5 15.8,27.3 16.4,27.2 16.8,27.3 17.3,27.4 17.7,27.7 18,28.1 18.1,28.2 18.3,28.2 18.4,28.1 19,27.4 19.1,27.3 
			18.5,26.6 17.2,26 16.4,25.9 15.4,26 14.7,26.3 14.1,26.8 13.7,27.4 13.5,28.2 13.7,28.9 14,29.5 14.7,30 15.5,30.3 16.8,30.7 
			17.3,30.9 17.6,31.1 17.8,31.3 17.9,31.7 17.8,32 17.5,32.3 17.1,32.5 16.5,32.5 15.9,32.5 15.3,32.2 14.7,31.9 14.3,31.3 
			14.2,31.2 14,31.2 14,31.3 13.3,32.1 13.2,32.1 13.2,32.3 14,33.1 14.7,33.5 15.5,33.8 16.4,33.9 17.4,33.8 18.2,33.5 18.8,33 
			19.2,32.4" class="st1"></polygon>
		<polygon points="27.4,29.5 27.3,29.4 27.2,29.4 23.5,29.4 23.4,29.5 23.4,30.7 23.5,30.8 25.9,30.8 25.6,31.5 
			25.1,32.1 24.4,32.4 23.5,32.6 22.6,32.4 21.9,31.8 21.4,31 21.2,29.9 21.4,28.9 21.9,28.1 22.6,27.5 23.6,27.3 24.1,27.4 
			24.6,27.5 25.1,27.8 25.5,28.2 25.6,28.3 25.7,28.3 25.8,28.2 26.5,27.5 26.6,27.3 25.8,26.6 25.2,26.2 24.4,26 23.6,25.9 
			22.7,26 21.8,26.3 21.1,26.8 20.6,27.4 20.1,28.1 19.8,29 19.7,29.9 19.8,30.9 20.1,31.7 20.5,32.5 21.1,33.1 21.8,33.5 
			22.6,33.8 23.5,33.9 24.5,33.8 25.3,33.5 26,33.1 26.6,32.5 27.1,31.7 27.3,30.9 27.4,30" class="st1"></polygon>
		<polygon points="30.1,29.9 30.1,29 30,28.2 29.8,27.3 29.5,26.5 29.2,25.7 28.8,24.9 28.6,24.6 28.6,29.9 28.5,30.9 
			28.4,31.8 28.2,32.6 27.8,33.4 27.4,34.2 27,34.9 26.4,35.6 25.8,36.2 25.1,36.8 24.4,37.2 23.6,37.6 22.8,38 21.9,38.2 
			21.1,38.3 20.1,38.4 19.2,38.3 18.3,38.2 17.5,37.9 16.7,37.6 15.9,37.2 15.2,36.7 14.5,36.2 13.9,35.6 13.3,34.9 12.9,34.2 
			12.5,33.4 12.1,32.6 11.9,31.7 11.8,30.8 11.7,29.9 11.7,29.9 11.8,29 11.9,28.1 12.2,27.2 12.5,26.4 12.9,25.7 13.4,24.9 
			13.9,24.3 14.5,23.6 15.2,23.1 15.9,22.6 16.7,22.2 17.5,21.9 18.4,21.7 19.3,21.5 20.2,21.5 21.1,21.5 22,21.7 22.8,21.9 
			23.7,22.2 24.4,22.6 25.1,23.1 25.8,23.7 26.4,24.3 27,25 27.4,25.7 27.8,26.5 28.2,27.3 28.4,28.1 28.5,29 28.6,29.9 28.6,29.9 
			28.6,24.6 27.8,23.5 27.2,22.9 26.6,22.3 25.9,21.8 25.4,21.5 25.2,21.3 24.4,20.9 23.6,20.6 22.8,20.3 22,20.1 21.1,20 20.2,20 
			19.3,20 18.4,20.1 17.5,20.3 16.7,20.6 15.9,20.9 15.1,21.3 14.4,21.8 13.8,22.3 13.1,22.9 12.5,23.5 12,24.2 11.6,24.9 
			11.2,25.6 10.8,26.4 10.6,27.3 10.4,28.1 10.2,29 10.2,29.9 10.2,30.8 10.3,31.7 10.5,32.6 10.8,33.4 11.1,34.2 11.5,34.9 
			12,35.7 12.5,36.3 13.1,37 13.7,37.5 14.4,38.1 15.1,38.5 15.9,38.9 16.7,39.3 17.5,39.5 18.3,39.7 19.2,39.9 20.1,39.9 21,39.9 
			21.9,39.7 22.8,39.6 23.6,39.3 24.4,39 25.2,38.6 25.9,38.1 26.6,37.6 27.2,37 27.8,36.4 28.3,35.7 28.7,35 29.1,34.2 29.5,33.4 
			29.8,32.6 30,31.7 30.1,30.9 30.1,30.8" class="st1"></polygon>
	</g>
	<g>
		<path d="M104.5,20.1c0,0-0.1-0.1-0.2-0.1c-0.1-0.1-0.2-0.1-0.3-0.2c-0.1-0.1-0.3-0.1-0.4-0.1c-0.1,0-0.3-0.1-0.5-0.1
			c-0.3,0-0.5,0-0.6,0.1c-0.1,0.1-0.2,0.2-0.2,0.4c0,0.1,0,0.2,0.1,0.3c0.1,0.1,0.1,0.1,0.2,0.2c0.1,0.1,0.2,0.1,0.4,0.1
			c0.1,0,0.3,0.1,0.5,0.1c0.2,0.1,0.5,0.1,0.7,0.2c0.2,0.1,0.4,0.2,0.5,0.3c0.1,0.1,0.3,0.3,0.3,0.4c0.1,0.2,0.1,0.4,0.1,0.6
			c0,0.3-0.1,0.5-0.2,0.7c-0.1,0.2-0.2,0.3-0.4,0.5c-0.2,0.1-0.4,0.2-0.6,0.3c-0.2,0.1-0.5,0.1-0.7,0.1c-0.4,0-0.8-0.1-1.1-0.2
			c-0.4-0.1-0.7-0.3-1-0.5c0.1-0.2,0.2-0.5,0.4-0.9c0,0,0.1,0.1,0.2,0.2c0.1,0.1,0.2,0.1,0.4,0.2c0.2,0.1,0.3,0.1,0.5,0.2
			c0.2,0,0.4,0.1,0.6,0.1c0.5,0,0.8-0.2,0.8-0.5c0-0.1,0-0.2-0.1-0.3c-0.1-0.1-0.1-0.1-0.3-0.2c-0.1-0.1-0.3-0.1-0.4-0.2
			c-0.2,0-0.3-0.1-0.5-0.2c-0.2-0.1-0.5-0.1-0.6-0.2c-0.2-0.1-0.3-0.2-0.4-0.3c-0.1-0.1-0.2-0.2-0.3-0.4c-0.1-0.1-0.1-0.3-0.1-0.5
			c0-0.3,0-0.5,0.1-0.7c0.1-0.2,0.2-0.4,0.4-0.5c0.2-0.1,0.4-0.2,0.6-0.3c0.2-0.1,0.5-0.1,0.7-0.1c0.4,0,0.7,0.1,1,0.2
			c0.3,0.1,0.6,0.2,0.8,0.4C104.8,19.4,104.7,19.7,104.5,20.1z"></path>
		<path d="M105.8,23.8c0-0.9,0-2.6,0-5.1c0.2,0,0.5,0,1,0c0,0.9,0,2.6,0,5.1C106.7,23.8,106.3,23.8,105.8,23.8z"></path>
		<path d="M108.9,20.6c0,0.5,0,1.6,0,3.3c-0.2,0-0.5,0-1,0c0-0.9,0-2.6,0-5.1c0.1,0,0.4,0,0.8,0c0.4,0.6,1.3,1.7,2.7,3.4
			c0-0.6,0-1.7,0-3.3c0.2,0,0.5,0,1,0c0,0.8,0,2.6,0,5.1c-0.1,0-0.4,0-0.8,0C111.1,23.3,110.2,22.2,108.9,20.6z"></path>
		<path d="M114.6,23.7c-0.2-0.1-0.3-0.2-0.4-0.3c-0.1-0.1-0.3-0.2-0.4-0.3c-0.1-0.1-0.2-0.3-0.3-0.4c-0.1-0.1-0.2-0.3-0.2-0.4
			c-0.1-0.2-0.1-0.3-0.1-0.5c0-0.2,0-0.3,0-0.5c0-0.2,0-0.3,0-0.5c0-0.2,0.1-0.3,0.1-0.5c0.1-0.2,0.1-0.3,0.2-0.4
			c0.1-0.1,0.2-0.3,0.3-0.4c0.1-0.1,0.2-0.2,0.4-0.3c0.1-0.1,0.3-0.2,0.4-0.3c0.1-0.1,0.3-0.1,0.5-0.2c0.2,0,0.4-0.1,0.5-0.1
			c0.2,0,0.4,0,0.6,0.1c0.2,0,0.4,0.1,0.5,0.2c0.2,0.1,0.3,0.2,0.4,0.3c0.1,0.1,0.3,0.3,0.3,0.5c-0.2,0.1-0.4,0.3-0.8,0.6
			c0,0,0-0.1-0.1-0.1s-0.1-0.1-0.1-0.1c0,0-0.1-0.1-0.1-0.1c0,0-0.1-0.1-0.1-0.1c0,0-0.1-0.1-0.2-0.1c-0.1,0-0.1-0.1-0.2-0.1
			c-0.1,0-0.1,0-0.2-0.1c-0.1,0-0.2,0-0.2,0c-0.1,0-0.2,0-0.3,0c-0.1,0-0.2,0.1-0.3,0.1c-0.1,0.1-0.2,0.1-0.2,0.2
			c-0.1,0.1-0.1,0.1-0.2,0.2c-0.1,0.1-0.1,0.2-0.2,0.3c0,0.1-0.1,0.2-0.1,0.3c0,0.1-0.1,0.2-0.1,0.3c0,0.1,0,0.2,0,0.3
			c0,0.1,0,0.2,0,0.3c0,0.1,0,0.2,0.1,0.3c0,0.1,0.1,0.2,0.1,0.3c0,0.1,0.1,0.2,0.2,0.3c0.1,0.1,0.1,0.2,0.2,0.2
			c0.1,0.1,0.2,0.1,0.3,0.2c0.1,0,0.2,0.1,0.3,0.1c0.1,0,0.2,0,0.3,0c0.1,0,0.2,0,0.2,0c0.1,0,0.1,0,0.2-0.1c0.1,0,0.1-0.1,0.2-0.1
			c0.1,0,0.1-0.1,0.2-0.1c0.1,0,0.1-0.1,0.2-0.1c0-0.1,0.1-0.1,0.1-0.2c0-0.1,0.1-0.1,0.1-0.2c0-0.1,0-0.1,0.1-0.2
			c-0.2,0-0.6,0-1.1,0c0-0.2,0-0.5,0-0.9c0.5,0,1.2,0,2.2,0c0,0,0,0,0,0c0,0,0,0,0,0.1c0,0,0,0.1,0,0.1c0,0,0,0.1,0,0.1
			c0,0,0,0.1,0,0.1c0,0,0,0.1,0,0.1c0,0,0,0,0,0.1s0,0,0,0c0,0.1,0,0.3-0.1,0.4c0,0.1-0.1,0.3-0.1,0.4c-0.1,0.1-0.1,0.3-0.2,0.4
			c-0.1,0.1-0.2,0.2-0.3,0.3c-0.1,0.1-0.2,0.2-0.3,0.3c-0.1,0.1-0.3,0.2-0.4,0.2c-0.1,0.1-0.3,0.1-0.4,0.1c-0.2,0-0.3,0-0.5,0
			c-0.2,0-0.4,0-0.5-0.1C114.9,23.8,114.7,23.7,114.6,23.7z"></path>
		<path d="M120.1,18.7c0.1,0,0.4,0,0.9,0c0.3,0.9,1,2.6,1.9,5.1c-0.2,0-0.5,0-1,0c-0.1-0.2-0.2-0.6-0.5-1.3c-0.3,0-0.9,0-1.8,0
			c-0.1,0.2-0.2,0.6-0.5,1.3c-0.2,0-0.5,0-1,0C118.4,23,119.1,21.3,120.1,18.7z M121.2,21.9c-0.1-0.3-0.4-1-0.7-2
			c-0.1,0.3-0.4,1-0.7,2C120,21.9,120.5,21.9,121.2,21.9z"></path>
		<path d="M123.4,23.8c0-0.9,0-2.6,0-5.1c0.4,0,1.1,0,2.2,0c0.2,0,0.5,0,0.7,0.1c0.2,0.1,0.4,0.2,0.5,0.4c0.1,0.2,0.3,0.3,0.3,0.5
			c0.1,0.2,0.1,0.4,0.1,0.6c0,0.2,0,0.4-0.1,0.6c-0.1,0.2-0.2,0.4-0.3,0.5c-0.1,0.2-0.3,0.3-0.5,0.4c-0.2,0.1-0.4,0.1-0.6,0.1
			c-0.3,0-0.7,0-1.2,0c0,0.3,0,0.9,0,1.7C124.3,23.8,123.9,23.8,123.4,23.8z M124.4,21.3c0.2,0,0.6,0,1.2,0c0.2,0,0.3-0.1,0.5-0.2
			c0.1-0.1,0.2-0.4,0.2-0.6c0-0.1,0-0.2-0.1-0.4c0-0.1-0.1-0.2-0.2-0.3c-0.1-0.1-0.1-0.1-0.2-0.2c-0.1,0-0.2-0.1-0.3-0.1
			c-0.2,0-0.6,0-1.1,0C124.4,19.9,124.4,20.4,124.4,21.3z"></path>
		<path d="M130.1,23.9c-0.4,0-0.7-0.1-1-0.2c-0.3-0.1-0.6-0.3-0.8-0.6c-0.2-0.2-0.4-0.5-0.5-0.8c-0.1-0.3-0.2-0.6-0.2-1
			c0-0.3,0.1-0.7,0.2-1c0.1-0.3,0.3-0.6,0.5-0.8c0.2-0.2,0.5-0.4,0.8-0.6c0.3-0.1,0.6-0.2,1-0.2c0.4,0,0.7,0.1,1,0.2
			c0.3,0.1,0.6,0.3,0.8,0.6c0.2,0.2,0.4,0.5,0.5,0.8c0.1,0.3,0.2,0.6,0.2,1c0,0.3-0.1,0.7-0.2,1c-0.1,0.3-0.3,0.6-0.5,0.8
			c-0.2,0.2-0.5,0.4-0.8,0.6C130.8,23.8,130.5,23.9,130.1,23.9z M128.6,21.3c0,0.2,0,0.4,0.1,0.6c0.1,0.2,0.2,0.4,0.3,0.5
			c0.1,0.2,0.3,0.3,0.5,0.4c0.2,0.1,0.4,0.1,0.6,0.1c0.2,0,0.5,0,0.6-0.1c0.2-0.1,0.3-0.2,0.5-0.4c0.1-0.2,0.2-0.3,0.3-0.5
			c0.1-0.2,0.1-0.4,0.1-0.6c0-0.2,0-0.4-0.1-0.6c-0.1-0.2-0.2-0.4-0.3-0.5c-0.1-0.2-0.3-0.3-0.5-0.4c-0.2-0.1-0.4-0.1-0.6-0.1
			c-0.2,0-0.5,0-0.6,0.1c-0.2,0.1-0.3,0.2-0.5,0.4c-0.1,0.2-0.2,0.3-0.3,0.5C128.7,20.9,128.6,21.1,128.6,21.3z"></path>
		<path d="M133.4,23.8c0-0.9,0-2.6,0-5.1c0.4,0,1.1,0,2.3,0c0.2,0,0.5,0,0.7,0.1c0.2,0.1,0.4,0.2,0.5,0.4c0.1,0.2,0.3,0.3,0.3,0.5
			c0.1,0.2,0.1,0.4,0.1,0.6c0,0.3-0.1,0.6-0.3,0.9c-0.2,0.3-0.4,0.5-0.7,0.6c0.3,0.4,0.6,1.1,1.2,1.9c-0.2,0-0.6,0-1.1,0
			c-0.2-0.3-0.5-0.9-1-1.7c-0.2,0-0.5,0-1,0c0,0.3,0,0.9,0,1.7C134.2,23.8,133.9,23.8,133.4,23.8z M134.4,21.3c0.2,0,0.6,0,1.2,0
			c0.1,0,0.2,0,0.3-0.1c0.1,0,0.1-0.1,0.2-0.2c0.1-0.1,0.1-0.2,0.1-0.3c0-0.1,0-0.2,0-0.3c0-0.1,0-0.2-0.1-0.3
			c0-0.1-0.1-0.2-0.2-0.3c-0.1-0.1-0.1-0.1-0.2-0.2c-0.1,0-0.2-0.1-0.3-0.1c-0.3,0-0.7,0-1.2,0C134.4,19.9,134.4,20.4,134.4,21.3z"></path>
		<path d="M141.7,23c0,0.1,0,0.4,0,0.9c-0.6,0-1.8,0-3.6,0c0-0.9,0-2.6,0-5.1c0.6,0,1.7,0,3.5,0c0,0.1,0,0.4,0,0.9
			c-0.4,0-1.2,0-2.5,0c0,0.2,0,0.6,0,1.2c0.4,0,1.1,0,2.2,0c0,0.1,0,0.4,0,0.8c-0.4,0-1.1,0-2.2,0c0,0.2,0,0.7,0,1.3
			C139.6,23,140.4,23,141.7,23z"></path>
		<path d="M101.4,32.5c0-0.9,0-2.6,0-5.1c0.4,0,1.1,0,2.2,0c0.2,0,0.5,0,0.7,0.1c0.2,0.1,0.4,0.2,0.5,0.4c0.1,0.2,0.3,0.3,0.3,0.5
			c0.1,0.2,0.1,0.4,0.1,0.6c0,0.2,0,0.4-0.1,0.6c-0.1,0.2-0.2,0.4-0.3,0.5c-0.1,0.2-0.3,0.3-0.5,0.4c-0.2,0.1-0.4,0.1-0.6,0.1
			c-0.3,0-0.7,0-1.2,0c0,0.3,0,0.9,0,1.7C102.2,32.5,101.9,32.5,101.4,32.5z M102.4,29.9c0.2,0,0.6,0,1.2,0c0.2,0,0.3-0.1,0.5-0.2
			c0.1-0.1,0.2-0.4,0.2-0.6c0-0.1,0-0.2-0.1-0.4c0-0.1-0.1-0.2-0.2-0.3c-0.1-0.1-0.1-0.1-0.2-0.2c-0.1,0-0.2-0.1-0.3-0.1
			c-0.2,0-0.6,0-1.1,0C102.4,28.5,102.4,29.1,102.4,29.9z"></path>
		<path d="M107.4,27.4c0.1,0,0.4,0,0.9,0c0.3,0.9,1,2.6,1.9,5.1c-0.2,0-0.5,0-1,0c-0.1-0.2-0.2-0.6-0.5-1.3c-0.3,0-0.9,0-1.8,0
			c-0.1,0.2-0.2,0.6-0.5,1.3c-0.2,0-0.5,0-1,0C105.7,31.6,106.4,29.9,107.4,27.4z M108.5,30.5c-0.1-0.3-0.4-1-0.7-2
			c-0.1,0.3-0.4,1-0.7,2C107.3,30.5,107.8,30.5,108.5,30.5z"></path>
		<path d="M110.7,32.5c0-0.9,0-2.6,0-5.1c0.4,0,1.1,0,2.3,0c0.2,0,0.5,0,0.7,0.1c0.2,0.1,0.4,0.2,0.5,0.4c0.1,0.2,0.3,0.3,0.3,0.5
			c0.1,0.2,0.1,0.4,0.1,0.6c0,0.3-0.1,0.6-0.3,0.9c-0.2,0.3-0.4,0.5-0.7,0.6c0.3,0.4,0.6,1.1,1.2,1.9c-0.2,0-0.6,0-1.1,0
			c-0.2-0.3-0.5-0.9-1-1.7c-0.2,0-0.5,0-1,0c0,0.3,0,0.9,0,1.7C111.6,32.5,111.2,32.5,110.7,32.5z M111.7,29.9c0.2,0,0.6,0,1.2,0
			c0.1,0,0.2,0,0.3-0.1c0.1,0,0.1-0.1,0.2-0.2c0.1-0.1,0.1-0.2,0.1-0.3c0-0.1,0-0.2,0-0.3c0-0.1,0-0.2-0.1-0.3
			c0-0.1-0.1-0.2-0.2-0.3c-0.1-0.1-0.1-0.1-0.2-0.2c-0.1,0-0.2-0.1-0.3-0.1c-0.3,0-0.7,0-1.2,0C111.7,28.5,111.7,29.1,111.7,29.9z"></path>
		<path d="M119.4,28.2c-0.3,0-0.8,0-1.6,0c0,0.7,0,2.1,0,4.2c-0.2,0-0.5,0-1,0c0-0.7,0-2.1,0-4.2c-0.3,0-0.8,0-1.6,0
			c0-0.1,0-0.4,0-0.9c0.7,0,2.1,0,4.3,0C119.4,27.5,119.4,27.8,119.4,28.2z"></path>
		<path d="M121,29.2c0,0.5,0,1.6,0,3.3c-0.2,0-0.5,0-1,0c0-0.9,0-2.6,0-5.1c0.1,0,0.4,0,0.8,0c0.4,0.6,1.3,1.7,2.7,3.4
			c0-0.6,0-1.7,0-3.3c0.2,0,0.5,0,1,0c0,0.8,0,2.5,0,5.1c-0.1,0-0.4,0-0.8,0C123.2,31.9,122.3,30.8,121,29.2z"></path>
		<path d="M129,31.6c0,0.1,0,0.4,0,0.9c-0.6,0-1.8,0-3.6,0c0-0.9,0-2.6,0-5.1c0.6,0,1.7,0,3.5,0c0,0.1,0,0.4,0,0.9
			c-0.4,0-1.2,0-2.5,0c0,0.2,0,0.6,0,1.2c0.4,0,1.1,0,2.2,0c0,0.1,0,0.4,0,0.8c-0.4,0-1.1,0-2.2,0c0,0.2,0,0.7,0,1.3
			C126.9,31.6,127.7,31.6,129,31.6z"></path>
		<path d="M129.8,32.5c0-0.9,0-2.6,0-5.1c0.4,0,1.1,0,2.3,0c0.2,0,0.5,0,0.7,0.1c0.2,0.1,0.4,0.2,0.5,0.4c0.1,0.2,0.3,0.3,0.3,0.5
			c0.1,0.2,0.1,0.4,0.1,0.6c0,0.3-0.1,0.6-0.3,0.9c-0.2,0.3-0.4,0.5-0.7,0.6c0.3,0.4,0.6,1.1,1.2,1.9c-0.2,0-0.6,0-1.1,0
			c-0.2-0.3-0.5-0.9-1-1.7c-0.2,0-0.5,0-1,0c0,0.3,0,0.9,0,1.7C130.6,32.5,130.3,32.5,129.8,32.5z M130.8,29.9c0.2,0,0.6,0,1.2,0
			c0.1,0,0.2,0,0.3-0.1c0.1,0,0.1-0.1,0.2-0.2c0.1-0.1,0.1-0.2,0.1-0.3c0-0.1,0-0.2,0-0.3c0-0.1,0-0.2-0.1-0.3
			c0-0.1-0.1-0.2-0.2-0.3c-0.1-0.1-0.1-0.1-0.2-0.2c-0.1,0-0.2-0.1-0.3-0.1c-0.3,0-0.7,0-1.2,0C130.8,28.5,130.8,29.1,130.8,29.9z"></path>
		<path d="M137.6,28.7c0,0-0.1-0.1-0.2-0.1c-0.1-0.1-0.2-0.1-0.3-0.2c-0.1-0.1-0.3-0.1-0.4-0.1s-0.3-0.1-0.5-0.1
			c-0.3,0-0.5,0-0.6,0.1c-0.1,0.1-0.2,0.2-0.2,0.4c0,0.1,0,0.2,0.1,0.3c0.1,0.1,0.1,0.1,0.2,0.2c0.1,0.1,0.2,0.1,0.4,0.1
			c0.1,0,0.3,0.1,0.5,0.1c0.2,0.1,0.5,0.1,0.7,0.2c0.2,0.1,0.4,0.2,0.5,0.3c0.1,0.1,0.3,0.3,0.3,0.4c0.1,0.2,0.1,0.4,0.1,0.6
			c0,0.3-0.1,0.5-0.2,0.7c-0.1,0.2-0.2,0.3-0.4,0.5c-0.2,0.1-0.4,0.2-0.6,0.3c-0.2,0.1-0.5,0.1-0.7,0.1c-0.4,0-0.8-0.1-1.1-0.2
			c-0.4-0.1-0.7-0.3-1-0.5c0.1-0.2,0.2-0.5,0.4-0.9c0,0,0.1,0.1,0.2,0.2c0.1,0.1,0.2,0.1,0.4,0.2c0.2,0.1,0.3,0.1,0.5,0.2
			c0.2,0,0.4,0.1,0.6,0.1c0.5,0,0.8-0.2,0.8-0.5c0-0.1,0-0.2-0.1-0.3c-0.1-0.1-0.1-0.1-0.3-0.2c-0.1-0.1-0.3-0.1-0.4-0.2
			c-0.2,0-0.3-0.1-0.5-0.2c-0.2-0.1-0.5-0.1-0.6-0.2c-0.2-0.1-0.3-0.2-0.4-0.3c-0.1-0.1-0.2-0.2-0.3-0.4c-0.1-0.1-0.1-0.3-0.1-0.5
			c0-0.3,0-0.5,0.1-0.7c0.1-0.2,0.2-0.4,0.4-0.5c0.2-0.1,0.4-0.2,0.6-0.3c0.2-0.1,0.5-0.1,0.7-0.1c0.4,0,0.7,0.1,1,0.2
			c0.3,0.1,0.6,0.2,0.8,0.4C138,28.1,137.8,28.3,137.6,28.7z"></path>
		<path d="M143.3,27.4c0,0.9,0,2.6,0,5.1c-0.2,0-0.5,0-1,0c0-0.4,0-1.1,0-2.2c-0.4,0-1.2,0-2.3,0c0,0.4,0,1.1,0,2.2
			c-0.2,0-0.5,0-1,0c0-0.9,0-2.6,0-5.1c0.2,0,0.5,0,1,0c0,0.3,0,1,0,2.1c0.4,0,1.2,0,2.3,0c0-0.3,0-1,0-2.1
			C142.5,27.4,142.8,27.4,143.3,27.4z"></path>
		<path d="M144.4,32.5c0-0.9,0-2.6,0-5.1c0.2,0,0.5,0,1,0c0,0.9,0,2.6,0,5.1C145.2,32.5,144.9,32.5,144.4,32.5z"></path>
		<path d="M146.4,32.5c0-0.9,0-2.6,0-5.1c0.4,0,1.1,0,2.2,0c0.2,0,0.5,0,0.7,0.1c0.2,0.1,0.4,0.2,0.5,0.4c0.1,0.2,0.3,0.3,0.3,0.5
			c0.1,0.2,0.1,0.4,0.1,0.6c0,0.2,0,0.4-0.1,0.6c-0.1,0.2-0.2,0.4-0.3,0.5c-0.1,0.2-0.3,0.3-0.5,0.4c-0.2,0.1-0.4,0.1-0.6,0.1
			c-0.3,0-0.7,0-1.2,0c0,0.3,0,0.9,0,1.7C147.3,32.5,146.9,32.5,146.4,32.5z M147.4,29.9c0.2,0,0.6,0,1.2,0c0.2,0,0.3-0.1,0.5-0.2
			c0.1-0.1,0.2-0.4,0.2-0.6c0-0.1,0-0.2-0.1-0.4c0-0.1-0.1-0.2-0.2-0.3c-0.1-0.1-0.1-0.1-0.2-0.2c-0.1,0-0.2-0.1-0.3-0.1
			c-0.2,0-0.6,0-1.1,0C147.4,28.5,147.4,29.1,147.4,29.9z"></path>
		<path d="M154,28.7c0,0-0.1-0.1-0.2-0.1c-0.1-0.1-0.2-0.1-0.3-0.2c-0.1-0.1-0.3-0.1-0.4-0.1s-0.3-0.1-0.5-0.1c-0.3,0-0.5,0-0.6,0.1
			c-0.1,0.1-0.2,0.2-0.2,0.4c0,0.1,0,0.2,0.1,0.3c0.1,0.1,0.1,0.1,0.2,0.2c0.1,0.1,0.2,0.1,0.4,0.1c0.1,0,0.3,0.1,0.5,0.1
			c0.2,0.1,0.5,0.1,0.7,0.2c0.2,0.1,0.4,0.2,0.5,0.3c0.1,0.1,0.3,0.3,0.3,0.4c0.1,0.2,0.1,0.4,0.1,0.6c0,0.3-0.1,0.5-0.2,0.7
			c-0.1,0.2-0.2,0.3-0.4,0.5c-0.2,0.1-0.4,0.2-0.6,0.3c-0.2,0.1-0.5,0.1-0.7,0.1c-0.4,0-0.8-0.1-1.1-0.2c-0.4-0.1-0.7-0.3-1-0.5
			c0.1-0.2,0.2-0.5,0.4-0.9c0,0,0.1,0.1,0.2,0.2c0.1,0.1,0.2,0.1,0.4,0.2c0.2,0.1,0.3,0.1,0.5,0.2c0.2,0,0.4,0.1,0.6,0.1
			c0.5,0,0.8-0.2,0.8-0.5c0-0.1,0-0.2-0.1-0.3c-0.1-0.1-0.1-0.1-0.3-0.2c-0.1-0.1-0.3-0.1-0.4-0.2c-0.2,0-0.3-0.1-0.5-0.2
			c-0.2-0.1-0.5-0.1-0.6-0.2c-0.2-0.1-0.3-0.2-0.4-0.3c-0.1-0.1-0.2-0.2-0.3-0.4c-0.1-0.1-0.1-0.3-0.1-0.5c0-0.3,0-0.5,0.1-0.7
			c0.1-0.2,0.2-0.4,0.4-0.5c0.2-0.1,0.4-0.2,0.6-0.3c0.2-0.1,0.5-0.1,0.7-0.1c0.4,0,0.7,0.1,1,0.2c0.3,0.1,0.6,0.2,0.8,0.4
			C154.3,28.1,154.2,28.3,154,28.7z"></path>
		<path d="M103.6,41.2c-0.4,0-0.7-0.1-1-0.2c-0.3-0.1-0.6-0.3-0.8-0.6c-0.2-0.2-0.4-0.5-0.5-0.8c-0.1-0.3-0.2-0.6-0.2-1
			c0-0.3,0.1-0.7,0.2-1c0.1-0.3,0.3-0.6,0.5-0.8c0.2-0.2,0.5-0.4,0.8-0.6c0.3-0.1,0.6-0.2,1-0.2c0.4,0,0.7,0.1,1,0.2
			c0.3,0.1,0.6,0.3,0.8,0.6c0.2,0.2,0.4,0.5,0.5,0.8c0.1,0.3,0.2,0.6,0.2,1c0,0.3-0.1,0.7-0.2,1c-0.1,0.3-0.3,0.6-0.5,0.8
			c-0.2,0.2-0.5,0.4-0.8,0.6C104.3,41.1,104,41.2,103.6,41.2z M102.1,38.6c0,0.2,0,0.4,0.1,0.6c0.1,0.2,0.2,0.4,0.3,0.5
			c0.1,0.2,0.3,0.3,0.5,0.4c0.2,0.1,0.4,0.1,0.6,0.1c0.2,0,0.5,0,0.6-0.1c0.2-0.1,0.3-0.2,0.5-0.4c0.1-0.2,0.2-0.3,0.3-0.5
			c0.1-0.2,0.1-0.4,0.1-0.6c0-0.2,0-0.4-0.1-0.6c-0.1-0.2-0.2-0.4-0.3-0.5c-0.1-0.2-0.3-0.3-0.5-0.4c-0.2-0.1-0.4-0.1-0.6-0.1
			c-0.2,0-0.5,0-0.6,0.1c-0.2,0.1-0.3,0.2-0.5,0.4c-0.1,0.2-0.2,0.3-0.3,0.5C102.1,38.1,102.1,38.4,102.1,38.6z"></path>
		<path d="M106.9,41.1c0-0.9,0-2.6,0-5.1c0.6,0,1.7,0,3.4,0c0,0.1,0,0.4,0,0.9c-0.4,0-1.2,0-2.4,0c0,0.2,0,0.7,0,1.3c0.3,0,1,0,2,0
			c0,0.1,0,0.4,0,0.8c-0.3,0-1,0-2,0c0,0.4,0,1.1,0,2.1C107.7,41.1,107.4,41.1,106.9,41.1z"></path>
		<path d="M111,41.1c0-0.9,0-2.6,0-5.1c0.6,0,1.7,0,3.4,0c0,0.1,0,0.4,0,0.9c-0.4,0-1.2,0-2.4,0c0,0.2,0,0.7,0,1.3c0.3,0,1,0,2,0
			c0,0.1,0,0.4,0,0.8c-0.3,0-1,0-2,0c0,0.4,0,1.1,0,2.1C111.8,41.1,111.5,41.1,111,41.1z"></path>
		<path d="M115.1,41.1c0-0.9,0-2.6,0-5.1c0.2,0,0.5,0,1,0c0,0.9,0,2.6,0,5.1C116,41.1,115.6,41.1,115.1,41.1z"></path>
		<path d="M116.9,38.5c0-0.3,0.1-0.6,0.2-0.9c0.1-0.3,0.3-0.6,0.5-0.8c0.2-0.2,0.5-0.4,0.8-0.6c0.3-0.1,0.7-0.2,1.1-0.2
			c0.5,0,0.9,0.1,1.2,0.3c0.3,0.2,0.6,0.5,0.8,0.8c-0.2,0.1-0.4,0.3-0.8,0.5c-0.1-0.1-0.1-0.3-0.2-0.4c-0.1-0.1-0.2-0.2-0.3-0.2
			c-0.1-0.1-0.2-0.1-0.3-0.1c-0.1,0-0.2,0-0.4,0c-0.2,0-0.5,0-0.7,0.1c-0.2,0.1-0.3,0.2-0.5,0.4c-0.1,0.2-0.2,0.3-0.3,0.5
			c-0.1,0.2-0.1,0.4-0.1,0.6c0,0.2,0,0.4,0.1,0.7c0.1,0.2,0.2,0.4,0.3,0.5c0.1,0.2,0.3,0.3,0.5,0.4c0.2,0.1,0.4,0.1,0.6,0.1
			c0.1,0,0.2,0,0.4,0c0.1,0,0.2-0.1,0.4-0.1c0.1-0.1,0.2-0.1,0.3-0.2c0.1-0.1,0.2-0.2,0.2-0.4c0.2,0.1,0.5,0.3,0.8,0.5
			c-0.1,0.2-0.2,0.4-0.4,0.5c-0.1,0.1-0.3,0.3-0.5,0.4c-0.2,0.1-0.4,0.2-0.6,0.2c-0.2,0.1-0.4,0.1-0.6,0.1c-0.4,0-0.7-0.1-1-0.2
			c-0.3-0.1-0.6-0.3-0.8-0.6c-0.2-0.2-0.4-0.5-0.5-0.8C116.9,39.2,116.9,38.9,116.9,38.5z"></path>
		<path d="M125.7,40.3c0,0.1,0,0.4,0,0.9c-0.6,0-1.8,0-3.6,0c0-0.9,0-2.6,0-5.1c0.6,0,1.7,0,3.5,0c0,0.1,0,0.4,0,0.9
			c-0.4,0-1.2,0-2.5,0c0,0.2,0,0.6,0,1.2c0.4,0,1.1,0,2.2,0c0,0.1,0,0.4,0,0.8c-0.4,0-1.1,0-2.2,0c0,0.2,0,0.7,0,1.3
			C123.5,40.3,124.4,40.3,125.7,40.3z"></path>
	</g>
	<line y2="41.7" x2="95.7" y1="18.2" x1="95.7" class="st2"></line>
</g>
</svg>
