<!--?xml version="1.0" encoding="utf-8"?-->
<!-- Generator: Adobe Illustrator 26.3.1, SVG Export Plug-In . SVG Version: 6.00 Build 0)  -->
<svg xml:space="preserve" style="enable-background:new 0 0 200 48;" viewBox="0 0 200 48" y="0px" x="0px" xmlns:xlink="http://www.w3.org/1999/xlink" xmlns="http://www.w3.org/2000/svg" id="Layer_1" version="1.0">
<style type="text/css">
	.st0{fill-rule:evenodd;clip-rule:evenodd;}
	.st1{fill-rule:evenodd;clip-rule:evenodd;fill:#EB1C3C;}
	.st2{fill:#231F20;}
	.st3{fill:none;stroke:#929497;stroke-miterlimit:10;}
</style>
<g>
	<g>
		<polygon points="46.1,20.9 46,20.8 45.8,20.8 38.1,20.8 38,20.9 38,22.4 38.1,22.6 41,22.6 41,30.4 41.2,30.5 
			42.9,30.5 43.1,30.4 43.1,22.6 46,22.6 46.1,22.4" class="st0"></polygon>
		<polygon points="55.7,25.7 55.6,24.7 55.3,23.9 54.9,23 54.4,22.3 53.7,21.6 53.6,21.6 53.6,25.6 53.6,25.9 53.4,27 
			52.8,28 51.8,28.6 50.9,28.8 50.6,28.7 49.6,28.4 48.8,27.6 48.3,26.5 48.2,25.6 48.2,25.3 48.5,24.2 49.1,23.3 50,22.7 
			50.9,22.5 51.2,22.5 52.3,22.9 53.1,23.7 53.5,24.8 53.6,25.6 53.6,21.6 52.4,20.9 51.5,20.7 51,20.7 50.5,20.7 49.5,20.9 
			48.6,21.3 47.9,21.9 47.2,22.6 46.7,23.3 46.4,24.2 46.2,25.2 46.2,25.6 46.2,26.1 46.4,27 46.7,27.9 47.2,28.7 47.8,29.4 
			48.6,29.9 49.4,30.3 50.4,30.5 50.9,30.6 51.4,30.5 52.4,30.3 53.3,29.9 54,29.4 54.6,28.8 54.6,28.7 55.1,27.9 55.5,27.1 
			55.7,26.1" class="st0"></polygon>
		<polygon points="66.1,25.2 61.2,24.9 61.2,25 61,25.1 61,25.2 61,26.5 61,26.6 61.2,26.7 61.2,26.7 64.1,26.8 
			63.7,27.6 63.1,28.3 62.3,28.7 61.3,28.8 60.7,28.7 59.7,28.3 58.9,27.4 58.5,26.3 58.5,25.7 58.7,24.4 59.3,23.4 60.2,22.8 
			61.3,22.5 62,22.6 62.6,22.8 63.1,23.1 63.6,23.5 63.7,23.6 63.8,23.7 64,23.6 64.1,23.6 64.1,23.5 64.9,22.7 64.1,21.5 
			63.3,21.1 62.4,20.8 61.3,20.7 60.3,20.8 59.4,21.1 58.6,21.5 57.9,22.1 57.3,22.8 56.9,23.7 56.6,24.6 56.6,25.6 56.6,26.7 
			56.9,27.6 57.3,28.4 57.9,29.2 58.6,29.8 59.4,30.2 60.3,30.5 61.3,30.6 62.3,30.5 63.2,30.2 64,29.8 64.7,29.2 65.3,28.5 
			65.8,27.6 66,26.7 66.1,25.7" class="st0"></polygon>
		<polygon points="73.8,28.8 73.7,28.7 73.6,28.7 69.1,28.7 69.1,26.4 73.6,26.4 73.7,26.3 73.7,24.8 73.6,24.7 
			69.1,24.7 69.1,22.6 73.7,22.6 73.8,22.4 73.8,20.9 73.7,20.8 67.2,20.8 67.1,20.9 67.1,30.4 67.2,30.5 73.7,30.5 73.8,30.4" class="st0"></polygon>
		<polygon points="82.8,20.9 82.7,20.8 82.5,20.8 74.8,20.8 74.7,20.9 74.7,22.4 74.8,22.6 77.7,22.6 77.7,30.4 
			77.9,30.5 79.6,30.5 79.7,30.4 79.7,22.6 82.7,22.6 82.8,22.4" class="st0"></polygon>
		<polygon points="91.8,20.9 91.7,20.8 91.6,20.8 90,20.8 89.8,20.9 89.8,24.6 89.8,24.6 85.7,24.6 85.7,24.6 
			85.7,20.9 85.5,20.8 83.8,20.8 83.6,20.9 83.6,30.4 83.8,30.5 85.5,30.5 85.7,30.4 85.7,26.5 85.7,26.4 89.8,26.4 89.8,26.5 
			89.8,30.4 90,30.5 91.7,30.5 91.8,30.4" class="st0"></polygon>
		<polygon points="99.9,20.8 93.5,20.8 93.4,20.9 93.4,30.4 93.5,30.5 99.9,30.5 100.1,30.4 100.1,28.8 99.9,28.7 
			99.8,28.7 95.4,28.7 95.4,28.6 95.4,26.4 95.4,26.4 99.8,26.4 99.9,26.3 99.9,24.8 99.8,24.7 95.4,24.7 95.4,24.7 95.4,22.6 
			95.4,22.6 99.9,22.6 100,22.4 100,20.9" class="st0"></polygon>
		<polygon points="105.6,20.8 101.4,20.8 101.3,20.9 101.3,30.4 101.4,30.5 103.2,30.5 103.3,30.4 103.3,27.3 
			103.4,27.3 107.3,27.3 107.1,26.9 107.1,26.9 107.1,26.8 107.1,26.8 107.2,26.8 107.5,26.6 107.8,26.4 108,26.1 108.3,25.8 
			108.4,25.5 103.4,25.5 103.3,25.4 103.3,22.6 103.4,22.6 108.4,22.6 108.4,22.6 107.9,21.8 107.1,21.2 106.3,20.8 105.9,20.8" class="st0"></polygon>
		<polygon points="107.3,27.3 105,27.3 105,27.3 105.1,27.3 106.9,30.4 107,30.5 108.9,30.5 109,30.4 109.1,30.3 
			109.1,30.2" class="st0"></polygon>
		<polygon points="108.4,22.6 105.6,22.6 105.8,22.6 106.1,22.7 106.6,23.6 106.7,24 106.7,24.2 106.4,25.1 105.5,25.5 
			108.4,25.5 108.5,25.4 108.6,24.9 108.7,24.5 108.7,24 108.7,23.7 108.7,23.4 108.6,23.1 108.5,22.8" class="st0"></polygon>
		<polygon points="22.1,27.8 21.9,26.8 20.8,25.5 19.8,25.1 18.1,24.7 17.5,24.4 17,24.2 16.7,23.8 16.7,23.5 16.8,23 
			17.1,22.7 17.7,22.5 18.4,22.4 19,22.4 19.5,22.6 20,22.9 20.5,23.4 20.6,23.5 20.8,23.5 20.9,23.4 21.7,22.5 21.8,22.4 21,21.6 
			19.4,20.9 18.4,20.8 17.3,20.9 16.3,21.3 15.6,21.8 15.1,22.6 15,23.5 15.1,24.4 15.6,25.1 16.3,25.7 17.3,26.1 18.9,26.6 
			19.5,26.8 20,27.1 20.2,27.4 20.3,27.8 20.2,28.2 19.9,28.6 19.3,28.8 18.6,28.9 17.8,28.8 17.1,28.5 16.4,28 15.9,27.4 
			15.8,27.3 15.6,27.2 15.5,27.4 14.6,28.3 14.5,28.4 14.5,28.5 15.5,29.5 16.4,30.1 17.4,30.4 18.5,30.5 19.7,30.4 20.7,30.1 
			21.4,29.5 21.9,28.7" class="st1"></polygon>
		<polygon points="32,25.2 31.9,25 31.7,25 27.1,25 27,25.1 27,26.6 27.1,26.7 30.1,26.7 29.7,27.6 29.1,28.3 
			28.2,28.7 27.2,28.9 26.1,28.6 25.1,28 24.5,27 24.3,25.7 24.6,24.4 25.2,23.4 26.1,22.7 27.2,22.5 27.9,22.5 28.5,22.7 29.1,23 
			29.6,23.5 29.7,23.6 29.9,23.6 30,23.5 30.8,22.6 30.9,22.5 30,21.6 29.2,21.1 28.3,20.9 27.3,20.8 26.1,20.9 25.1,21.3 
			24.3,21.8 23.5,22.6 23,23.5 22.7,24.5 22.6,25.7 22.7,26.8 23,27.9 23.5,28.8 24.2,29.5 25.1,30.1 26.1,30.4 27.2,30.6 
			28.3,30.4 29.4,30.1 30.2,29.5 31,28.8 31.5,27.9 31.8,26.9 32,25.7" class="st1"></polygon>
		<polygon points="35.3,25.7 35.2,24.6 35.1,23.5 34.8,22.4 34.5,21.4 34.1,20.5 33.6,19.5 33.4,19.2 33.4,25.7 
			33.3,26.8 33.1,27.9 32.9,29 32.5,30 32,30.9 31.4,31.8 30.7,32.6 30,33.4 29.1,34 28.3,34.6 27.3,35.1 26.3,35.5 25.3,35.8 
			24.2,35.9 23,36 21.9,35.9 20.8,35.8 19.8,35.5 18.8,35.1 17.8,34.6 16.9,34 16.1,33.3 15.4,32.6 14.7,31.8 14.1,30.9 13.6,29.9 
			13.3,28.9 13,27.9 12.8,26.8 12.7,25.7 12.7,25.6 12.8,24.5 13,23.4 13.3,22.4 13.7,21.4 14.2,20.4 14.7,19.5 15.4,18.7 16.2,18 
			17,17.3 17.9,16.7 18.8,16.2 19.8,15.8 20.9,15.6 22,15.4 23.1,15.3 24.2,15.4 25.3,15.6 26.3,15.9 27.3,16.3 28.3,16.7 
			29.2,17.3 30,18 30.7,18.8 31.4,19.6 32,20.5 32.5,21.4 32.9,22.4 33.2,23.5 33.3,24.6 33.4,25.6 33.4,25.7 33.4,19.2 32.4,17.8 
			31.7,17 30.9,16.3 30.1,15.7 29.5,15.3 29.2,15.1 28.3,14.6 27.3,14.2 26.3,13.9 25.3,13.7 24.2,13.5 23.1,13.5 22,13.5 
			20.9,13.6 19.8,13.9 18.8,14.2 17.9,14.6 16.9,15.1 16,15.7 15.2,16.3 14.5,17 13.7,17.8 13.1,18.6 12.5,19.5 12,20.4 11.6,21.4 
			11.3,22.4 11.1,23.4 10.9,24.5 10.9,25.6 10.9,26.8 11.1,27.8 11.3,28.9 11.6,29.9 12,30.9 12.5,31.8 13.1,32.7 13.7,33.5 
			14.4,34.3 15.2,35 16,35.6 16.9,36.2 17.8,36.7 18.8,37.1 19.8,37.4 20.8,37.7 21.9,37.8 23,37.9 24.1,37.8 25.2,37.7 26.3,37.4 
			27.3,37.1 28.3,36.7 29.2,36.2 30.1,35.7 30.9,35 31.7,34.3 32.4,33.6 33,32.7 33.6,31.9 34.1,30.9 34.5,30 34.8,28.9 35.1,27.9 
			35.2,26.8 35.2,26.8" class="st1"></polygon>
	</g>
	<g>
		<path d="M126.3,13.6c0,0-0.1-0.1-0.2-0.2c-0.1-0.1-0.2-0.1-0.4-0.2c-0.1-0.1-0.3-0.1-0.5-0.2c-0.2,0-0.4-0.1-0.6-0.1
			c-0.3,0-0.6,0.1-0.7,0.2c-0.2,0.1-0.2,0.3-0.2,0.5c0,0.1,0,0.2,0.1,0.3c0.1,0.1,0.2,0.2,0.3,0.2c0.1,0.1,0.3,0.1,0.4,0.2
			c0.2,0.1,0.4,0.1,0.6,0.2c0.3,0.1,0.6,0.2,0.8,0.3c0.3,0.1,0.5,0.2,0.6,0.4c0.2,0.1,0.3,0.3,0.4,0.5c0.1,0.2,0.1,0.4,0.1,0.7
			c0,0.3-0.1,0.6-0.2,0.9c-0.1,0.2-0.3,0.4-0.5,0.6c-0.2,0.1-0.5,0.3-0.7,0.3c-0.3,0.1-0.6,0.1-0.9,0.1c-0.5,0-0.9-0.1-1.4-0.2
			c-0.5-0.1-0.9-0.3-1.2-0.6c0.1-0.2,0.3-0.6,0.5-1.1c0.1,0.1,0.1,0.1,0.3,0.2c0.1,0.1,0.3,0.2,0.5,0.3c0.2,0.1,0.4,0.2,0.6,0.2
			c0.2,0.1,0.5,0.1,0.7,0.1c0.7,0,1-0.2,1-0.6c0-0.1,0-0.2-0.1-0.3c-0.1-0.1-0.2-0.2-0.3-0.2c-0.1-0.1-0.3-0.1-0.5-0.2
			c-0.2-0.1-0.4-0.1-0.7-0.2c-0.3-0.1-0.6-0.2-0.8-0.3c-0.2-0.1-0.4-0.2-0.6-0.3c-0.1-0.1-0.3-0.3-0.3-0.5c-0.1-0.2-0.1-0.4-0.1-0.6
			c0-0.3,0.1-0.6,0.2-0.8c0.1-0.2,0.3-0.5,0.5-0.6c0.2-0.2,0.5-0.3,0.7-0.4c0.3-0.1,0.6-0.1,0.9-0.1c0.4,0,0.8,0.1,1.2,0.2
			c0.4,0.1,0.7,0.3,1,0.5C126.7,12.8,126.5,13.2,126.3,13.6z" class="st2"></path>
		<path d="M127.9,18.2c0-1,0-3.1,0-6.3c0.2,0,0.6,0,1.2,0c0,1,0,3.1,0,6.3C129,18.2,128.6,18.2,127.9,18.2z" class="st2"></path>
		<path d="M131.7,14.2c0,0.7,0,2,0,4c-0.2,0-0.6,0-1.2,0c0-1,0-3.1,0-6.3c0.2,0,0.5,0,0.9,0c0.5,0.7,1.6,2.1,3.3,4.1
			c0-0.7,0-2,0-4.1c0.2,0,0.6,0,1.2,0c0,1,0,3.1,0,6.2c-0.2,0-0.5,0-1,0C134.4,17.5,133.3,16.2,131.7,14.2z" class="st2"></path>
		<path d="M138.6,18c-0.2-0.1-0.4-0.2-0.5-0.3c-0.2-0.1-0.3-0.3-0.4-0.4c-0.1-0.1-0.3-0.3-0.4-0.5
			c-0.1-0.2-0.2-0.3-0.3-0.5c-0.1-0.2-0.1-0.4-0.2-0.6c0-0.2-0.1-0.4-0.1-0.6c0-0.2,0-0.4,0.1-0.6c0-0.2,0.1-0.4,0.2-0.6
			c0.1-0.2,0.2-0.4,0.3-0.5c0.1-0.2,0.2-0.3,0.4-0.5c0.1-0.1,0.3-0.3,0.4-0.4c0.2-0.1,0.3-0.2,0.5-0.3c0.2-0.1,0.4-0.2,0.6-0.2
			c0.2,0,0.4-0.1,0.7-0.1c0.3,0,0.5,0,0.8,0.1c0.2,0.1,0.4,0.1,0.7,0.3c0.2,0.1,0.4,0.3,0.5,0.4c0.2,0.2,0.3,0.3,0.4,0.6
			c-0.2,0.2-0.5,0.4-1,0.8c0,0-0.1-0.1-0.1-0.1c0-0.1-0.1-0.1-0.1-0.2c0-0.1-0.1-0.1-0.1-0.2c-0.1-0.1-0.1-0.1-0.2-0.2
			c-0.1-0.1-0.1-0.1-0.2-0.1c-0.1,0-0.1-0.1-0.2-0.1c-0.1,0-0.2-0.1-0.3-0.1c-0.1,0-0.2,0-0.3,0c-0.1,0-0.3,0-0.4,0
			c-0.1,0-0.2,0.1-0.3,0.1c-0.1,0.1-0.2,0.1-0.3,0.2c-0.1,0.1-0.2,0.2-0.2,0.3c-0.1,0.1-0.1,0.2-0.2,0.3c-0.1,0.1-0.1,0.2-0.1,0.4
			c0,0.1-0.1,0.3-0.1,0.4c0,0.1,0,0.3,0,0.4s0,0.3,0,0.4c0,0.1,0,0.2,0.1,0.4c0,0.1,0.1,0.2,0.1,0.4c0.1,0.1,0.1,0.2,0.2,0.3
			c0.1,0.1,0.1,0.2,0.2,0.3c0.1,0.1,0.2,0.2,0.3,0.2c0.1,0.1,0.2,0.1,0.4,0.1c0.1,0,0.3,0,0.4,0c0.1,0,0.2,0,0.3,0
			c0.1,0,0.2,0,0.3-0.1c0.1,0,0.2-0.1,0.3-0.1c0.1,0,0.2-0.1,0.2-0.2c0.1-0.1,0.1-0.1,0.2-0.2c0.1-0.1,0.1-0.1,0.2-0.2
			c0-0.1,0.1-0.1,0.1-0.2c0-0.1,0.1-0.2,0.1-0.2c-0.3,0-0.8,0-1.4,0c0-0.2,0-0.6,0-1.1c0.6,0,1.5,0,2.7,0c0,0,0,0,0,0c0,0,0,0,0,0.1
			c0,0,0,0.1,0,0.1c0,0,0,0.1,0,0.1c0,0,0,0.1,0,0.1c0,0,0,0.1,0,0.1c0,0,0,0.1,0,0.1c0,0,0,0,0,0c0,0.2,0,0.4-0.1,0.5
			c0,0.2-0.1,0.3-0.2,0.5c-0.1,0.2-0.2,0.3-0.2,0.5c-0.1,0.1-0.2,0.3-0.3,0.4c-0.1,0.1-0.3,0.2-0.4,0.3c-0.1,0.1-0.3,0.2-0.5,0.3
			c-0.2,0.1-0.4,0.1-0.5,0.2c-0.2,0-0.4,0.1-0.6,0.1c-0.2,0-0.4,0-0.6-0.1C139,18.1,138.8,18.1,138.6,18z" class="st2"></path>
		<path d="M145.4,12c0.2,0,0.5,0,1.1,0c0.4,1,1.2,3.1,2.4,6.3c-0.2,0-0.6,0-1.2,0c-0.1-0.3-0.3-0.8-0.6-1.6
			c-0.4,0-1.1,0-2.2,0c-0.1,0.3-0.3,0.8-0.6,1.6c-0.2,0-0.6,0-1.3,0C143.4,17.2,144.2,15.1,145.4,12z M146.8,15.8
			c-0.1-0.4-0.4-1.2-0.9-2.5c-0.1,0.4-0.4,1.2-0.9,2.5C145.3,15.8,145.9,15.8,146.8,15.8z" class="st2"></path>
		<path d="M149.5,18.2c0-1,0-3.1,0-6.3c0.4,0,1.3,0,2.7,0c0.3,0,0.6,0.1,0.8,0.2c0.2,0.1,0.5,0.3,0.6,0.5
			c0.2,0.2,0.3,0.4,0.4,0.7c0.1,0.3,0.1,0.5,0.1,0.8c0,0.3,0,0.5-0.1,0.8c-0.1,0.3-0.2,0.5-0.4,0.7c-0.2,0.2-0.4,0.3-0.6,0.5
			c-0.2,0.1-0.5,0.2-0.8,0.2c-0.3,0-0.8,0-1.5,0c0,0.4,0,1.1,0,2.1C150.5,18.2,150.1,18.2,149.5,18.2z M150.7,15c0.2,0,0.7,0,1.4,0
			c0.2,0,0.4-0.1,0.6-0.3c0.1-0.2,0.2-0.4,0.2-0.7c0-0.2,0-0.3-0.1-0.4c0-0.1-0.1-0.2-0.2-0.3c-0.1-0.1-0.2-0.2-0.3-0.2
			c-0.1,0-0.2-0.1-0.3-0.1c-0.3,0-0.8,0-1.4,0C150.7,13.4,150.7,14,150.7,15z" class="st2"></path>
		<path d="M157.7,18.3c-0.5,0-0.9-0.1-1.2-0.3c-0.4-0.2-0.7-0.4-1-0.7c-0.3-0.3-0.5-0.6-0.6-1c-0.1-0.4-0.2-0.8-0.2-1.2
			c0-0.4,0.1-0.8,0.2-1.2c0.2-0.4,0.4-0.7,0.6-1c0.3-0.3,0.6-0.5,1-0.7c0.4-0.2,0.8-0.3,1.2-0.3c0.5,0,0.9,0.1,1.2,0.3
			c0.4,0.2,0.7,0.4,1,0.7c0.3,0.3,0.5,0.6,0.6,1c0.1,0.4,0.2,0.8,0.2,1.2c0,0.4-0.1,0.8-0.2,1.2c-0.2,0.4-0.4,0.7-0.6,1
			c-0.3,0.3-0.6,0.5-1,0.7C158.5,18.2,158.1,18.3,157.7,18.3z M155.8,15.1c0,0.3,0,0.5,0.1,0.8c0.1,0.3,0.2,0.5,0.4,0.7
			c0.2,0.2,0.4,0.4,0.6,0.5c0.2,0.1,0.5,0.2,0.8,0.2c0.3,0,0.6-0.1,0.8-0.2c0.2-0.1,0.4-0.3,0.6-0.5c0.2-0.2,0.3-0.4,0.4-0.7
			c0.1-0.2,0.1-0.5,0.1-0.8c0-0.3,0-0.5-0.1-0.8c-0.1-0.3-0.2-0.5-0.4-0.7c-0.2-0.2-0.3-0.3-0.6-0.5c-0.2-0.1-0.5-0.2-0.8-0.2
			c-0.3,0-0.6,0.1-0.8,0.2c-0.2,0.1-0.4,0.3-0.6,0.5c-0.1,0.2-0.3,0.4-0.3,0.7C155.9,14.6,155.8,14.8,155.8,15.1z" class="st2"></path>
		<path d="M161.7,18.2c0-1,0-3.1,0-6.3c0.5,0,1.4,0,2.8,0c0.3,0,0.6,0.1,0.8,0.2c0.2,0.1,0.5,0.3,0.6,0.5
			c0.2,0.2,0.3,0.4,0.4,0.7c0.1,0.3,0.2,0.5,0.2,0.8c0,0.4-0.1,0.8-0.3,1.1c-0.2,0.3-0.5,0.6-0.8,0.7c0.3,0.5,0.8,1.3,1.4,2.4
			c-0.2,0-0.7,0-1.4,0c-0.2-0.4-0.6-1.1-1.3-2.1c-0.2,0-0.6,0-1.2,0c0,0.4,0,1.1,0,2.1C162.7,18.2,162.3,18.2,161.7,18.2z M162.9,15
			c0.3,0,0.8,0,1.5,0c0.1,0,0.2,0,0.3-0.1c0.1-0.1,0.2-0.1,0.2-0.2c0.1-0.1,0.1-0.2,0.2-0.3c0-0.1,0.1-0.3,0.1-0.4
			c0-0.1,0-0.3-0.1-0.4c0-0.1-0.1-0.2-0.2-0.3c-0.1-0.1-0.2-0.2-0.3-0.2c-0.1-0.1-0.2-0.1-0.3-0.1c-0.3,0-0.8,0-1.5,0
			C162.9,13.4,162.9,14,162.9,15z" class="st2"></path>
		<path d="M171.9,17.1c0,0.2,0,0.5,0,1.1c-0.7,0-2.2,0-4.3,0c0-1,0-3.1,0-6.3c0.7,0,2.1,0,4.3,0c0,0.2,0,0.5,0,1.1
			c-0.5,0-1.5,0-3,0c0,0.3,0,0.8,0,1.5c0.4,0,1.3,0,2.6,0c0,0.2,0,0.5,0,1c-0.4,0-1.3,0-2.6,0c0,0.3,0,0.8,0,1.6
			C169.3,17.1,170.3,17.1,171.9,17.1z" class="st2"></path>
		<path d="M122.5,28.8c0-1,0-3.1,0-6.3c0.4,0,1.3,0,2.7,0c0.3,0,0.6,0.1,0.8,0.2c0.2,0.1,0.5,0.3,0.6,0.5
			c0.2,0.2,0.3,0.4,0.4,0.7c0.1,0.3,0.1,0.5,0.1,0.8c0,0.3,0,0.5-0.1,0.8c-0.1,0.3-0.2,0.5-0.4,0.7c-0.2,0.2-0.4,0.3-0.6,0.5
			c-0.2,0.1-0.5,0.2-0.8,0.2c-0.3,0-0.8,0-1.5,0c0,0.4,0,1.1,0,2.1C123.5,28.8,123.1,28.8,122.5,28.8z M123.8,25.6
			c0.2,0,0.7,0,1.4,0c0.2,0,0.4-0.1,0.6-0.3c0.1-0.2,0.2-0.4,0.2-0.7c0-0.2,0-0.3-0.1-0.4c0-0.1-0.1-0.2-0.2-0.3
			c-0.1-0.1-0.2-0.2-0.3-0.2c-0.1,0-0.2-0.1-0.3-0.1c-0.3,0-0.8,0-1.4,0C123.8,23.9,123.8,24.6,123.8,25.6z" class="st2"></path>
		<path d="M129.8,22.5c0.2,0,0.5,0,1.1,0c0.4,1,1.2,3.1,2.4,6.3c-0.2,0-0.6,0-1.2,0c-0.1-0.3-0.3-0.8-0.6-1.6
			c-0.4,0-1.1,0-2.2,0c-0.1,0.3-0.3,0.8-0.6,1.6c-0.2,0-0.6,0-1.3,0C127.8,27.7,128.6,25.7,129.8,22.5z M131.2,26.4
			c-0.1-0.4-0.4-1.2-0.9-2.5c-0.1,0.4-0.4,1.2-0.9,2.5C129.7,26.4,130.3,26.4,131.2,26.4z" class="st2"></path>
		<path d="M134,28.8c0-1,0-3.1,0-6.3c0.5,0,1.4,0,2.8,0c0.3,0,0.6,0.1,0.8,0.2c0.2,0.1,0.5,0.3,0.6,0.5
			c0.2,0.2,0.3,0.4,0.4,0.7c0.1,0.3,0.2,0.5,0.2,0.8c0,0.4-0.1,0.8-0.3,1.1c-0.2,0.3-0.5,0.6-0.8,0.7c0.3,0.5,0.8,1.3,1.4,2.4
			c-0.2,0-0.7,0-1.4,0c-0.2-0.4-0.6-1.1-1.3-2.1c-0.2,0-0.6,0-1.2,0c0,0.4,0,1.1,0,2.1C135,28.8,134.6,28.8,134,28.8z M135.2,25.6
			c0.3,0,0.8,0,1.5,0c0.1,0,0.2,0,0.3-0.1c0.1-0.1,0.2-0.1,0.2-0.2c0.1-0.1,0.1-0.2,0.2-0.3c0-0.1,0.1-0.3,0.1-0.4
			c0-0.1,0-0.3-0.1-0.4c0-0.1-0.1-0.2-0.2-0.3c-0.1-0.1-0.2-0.2-0.3-0.2c-0.1-0.1-0.2-0.1-0.3-0.1c-0.3,0-0.8,0-1.5,0
			C135.2,23.9,135.2,24.6,135.2,25.6z" class="st2"></path>
		<path d="M144.5,23.6c-0.3,0-1,0-2,0c0,0.9,0,2.6,0,5.2c-0.2,0-0.6,0-1.2,0c0-0.9,0-2.6,0-5.2c-0.3,0-1,0-2,0
			c0-0.2,0-0.5,0-1.1c0.9,0,2.6,0,5.2,0C144.5,22.7,144.5,23.1,144.5,23.6z" class="st2"></path>
		<path d="M146.5,24.8c0,0.7,0,2,0,4c-0.2,0-0.6,0-1.2,0c0-1,0-3.1,0-6.3c0.2,0,0.5,0,0.9,0c0.5,0.7,1.6,2.1,3.3,4.1
			c0-0.7,0-2,0-4.1c0.2,0,0.6,0,1.2,0c0,1,0,3.1,0,6.2c-0.2,0-0.5,0-1,0C149.2,28.1,148.1,26.8,146.5,24.8z" class="st2"></path>
		<path d="M156.3,27.7c0,0.2,0,0.5,0,1.1c-0.7,0-2.2,0-4.3,0c0-1,0-3.1,0-6.3c0.7,0,2.1,0,4.3,0c0,0.2,0,0.5,0,1.1
			c-0.5,0-1.5,0-3,0c0,0.3,0,0.8,0,1.5c0.4,0,1.3,0,2.6,0c0,0.2,0,0.5,0,1c-0.4,0-1.3,0-2.6,0c0,0.3,0,0.8,0,1.6
			C153.7,27.7,154.8,27.7,156.3,27.7z" class="st2"></path>
		<path d="M157.3,28.8c0-1,0-3.1,0-6.3c0.5,0,1.4,0,2.8,0c0.3,0,0.6,0.1,0.8,0.2c0.2,0.1,0.5,0.3,0.6,0.5
			c0.2,0.2,0.3,0.4,0.4,0.7c0.1,0.3,0.2,0.5,0.2,0.8c0,0.4-0.1,0.8-0.3,1.1c-0.2,0.3-0.5,0.6-0.8,0.7c0.3,0.5,0.8,1.3,1.4,2.4
			c-0.2,0-0.7,0-1.4,0c-0.2-0.4-0.6-1.1-1.3-2.1c-0.2,0-0.6,0-1.2,0c0,0.4,0,1.1,0,2.1C158.3,28.8,157.9,28.8,157.3,28.8z
			 M158.5,25.6c0.3,0,0.8,0,1.5,0c0.1,0,0.2,0,0.3-0.1c0.1-0.1,0.2-0.1,0.2-0.2c0.1-0.1,0.1-0.2,0.2-0.3c0-0.1,0.1-0.3,0.1-0.4
			c0-0.1,0-0.3-0.1-0.4c0-0.1-0.1-0.2-0.2-0.3c-0.1-0.1-0.2-0.2-0.3-0.2c-0.1-0.1-0.2-0.1-0.3-0.1c-0.3,0-0.8,0-1.5,0
			C158.5,23.9,158.5,24.6,158.5,25.6z" class="st2"></path>
		<path d="M166.9,24.2c0,0-0.1-0.1-0.2-0.2c-0.1-0.1-0.2-0.1-0.4-0.2c-0.1-0.1-0.3-0.1-0.5-0.2c-0.2,0-0.4-0.1-0.6-0.1
			c-0.3,0-0.6,0.1-0.7,0.2c-0.2,0.1-0.2,0.3-0.2,0.5c0,0.1,0,0.2,0.1,0.3c0.1,0.1,0.2,0.2,0.3,0.2c0.1,0.1,0.3,0.1,0.4,0.2
			c0.2,0.1,0.4,0.1,0.6,0.2c0.3,0.1,0.6,0.2,0.8,0.3c0.3,0.1,0.5,0.2,0.6,0.4c0.2,0.1,0.3,0.3,0.4,0.5c0.1,0.2,0.1,0.4,0.1,0.7
			c0,0.3-0.1,0.6-0.2,0.9c-0.1,0.2-0.3,0.4-0.5,0.6c-0.2,0.1-0.5,0.3-0.7,0.3c-0.3,0.1-0.6,0.1-0.9,0.1c-0.5,0-0.9-0.1-1.4-0.2
			c-0.5-0.1-0.9-0.3-1.2-0.6c0.1-0.2,0.3-0.6,0.5-1.1c0.1,0.1,0.1,0.1,0.3,0.2c0.1,0.1,0.3,0.2,0.5,0.3c0.2,0.1,0.4,0.2,0.6,0.2
			c0.2,0.1,0.5,0.1,0.7,0.1c0.7,0,1-0.2,1-0.6c0-0.1,0-0.2-0.1-0.3c-0.1-0.1-0.2-0.2-0.3-0.2c-0.1-0.1-0.3-0.1-0.5-0.2
			c-0.2-0.1-0.4-0.1-0.7-0.2c-0.3-0.1-0.6-0.2-0.8-0.3c-0.2-0.1-0.4-0.2-0.6-0.3c-0.1-0.1-0.3-0.3-0.3-0.5c-0.1-0.2-0.1-0.4-0.1-0.6
			c0-0.3,0.1-0.6,0.2-0.8c0.1-0.2,0.3-0.5,0.5-0.6c0.2-0.2,0.5-0.3,0.7-0.4c0.3-0.1,0.6-0.1,0.9-0.1c0.4,0,0.8,0.1,1.2,0.2
			c0.4,0.1,0.7,0.3,1,0.5C167.3,23.4,167.1,23.7,166.9,24.2z" class="st2"></path>
		<path d="M173.8,22.5c0,1,0,3.1,0,6.3c-0.2,0-0.6,0-1.2,0c0-0.4,0-1.3,0-2.7c-0.5,0-1.4,0-2.8,0c0,0.4,0,1.3,0,2.7
			c-0.2,0-0.6,0-1.2,0c0-1,0-3.1,0-6.3c0.2,0,0.6,0,1.2,0c0,0.4,0,1.3,0,2.5c0.5,0,1.4,0,2.8,0c0-0.4,0-1.3,0-2.5
			C172.8,22.5,173.2,22.5,173.8,22.5z" class="st2"></path>
		<path d="M175.1,28.8c0-1,0-3.1,0-6.3c0.2,0,0.6,0,1.2,0c0,1,0,3.1,0,6.3C176.1,28.8,175.7,28.8,175.1,28.8z" class="st2"></path>
		<path d="M177.6,28.8c0-1,0-3.1,0-6.3c0.4,0,1.3,0,2.7,0c0.3,0,0.6,0.1,0.8,0.2c0.2,0.1,0.5,0.3,0.6,0.5
			c0.2,0.2,0.3,0.4,0.4,0.7c0.1,0.3,0.1,0.5,0.1,0.8c0,0.3,0,0.5-0.1,0.8c-0.1,0.3-0.2,0.5-0.4,0.7c-0.2,0.2-0.4,0.3-0.6,0.5
			c-0.2,0.1-0.5,0.2-0.8,0.2c-0.3,0-0.8,0-1.5,0c0,0.4,0,1.1,0,2.1C178.7,28.8,178.3,28.8,177.6,28.8z M178.9,25.6
			c0.2,0,0.7,0,1.4,0c0.2,0,0.4-0.1,0.6-0.3c0.1-0.2,0.2-0.4,0.2-0.7c0-0.2,0-0.3-0.1-0.4c0-0.1-0.1-0.2-0.2-0.3
			c-0.1-0.1-0.2-0.2-0.3-0.2c-0.1,0-0.2-0.1-0.3-0.1c-0.3,0-0.8,0-1.4,0C178.9,23.9,178.9,24.6,178.9,25.6z" class="st2"></path>
		<path d="M186.9,24.2c0,0-0.1-0.1-0.2-0.2c-0.1-0.1-0.2-0.1-0.4-0.2c-0.1-0.1-0.3-0.1-0.5-0.2c-0.2,0-0.4-0.1-0.6-0.1
			c-0.3,0-0.6,0.1-0.7,0.2c-0.2,0.1-0.2,0.3-0.2,0.5c0,0.1,0,0.2,0.1,0.3c0.1,0.1,0.2,0.2,0.3,0.2c0.1,0.1,0.3,0.1,0.4,0.2
			c0.2,0.1,0.4,0.1,0.6,0.2c0.3,0.1,0.6,0.2,0.8,0.3c0.3,0.1,0.5,0.2,0.6,0.4c0.2,0.1,0.3,0.3,0.4,0.5c0.1,0.2,0.1,0.4,0.1,0.7
			c0,0.3-0.1,0.6-0.2,0.9c-0.1,0.2-0.3,0.4-0.5,0.6c-0.2,0.1-0.5,0.3-0.7,0.3c-0.3,0.1-0.6,0.1-0.9,0.1c-0.5,0-0.9-0.1-1.4-0.2
			c-0.5-0.1-0.9-0.3-1.2-0.6c0.1-0.2,0.3-0.6,0.5-1.1c0.1,0.1,0.1,0.1,0.3,0.2c0.1,0.1,0.3,0.2,0.5,0.3c0.2,0.1,0.4,0.2,0.6,0.2
			c0.2,0.1,0.5,0.1,0.7,0.1c0.7,0,1-0.2,1-0.6c0-0.1,0-0.2-0.1-0.3c-0.1-0.1-0.2-0.2-0.3-0.2c-0.1-0.1-0.3-0.1-0.5-0.2
			c-0.2-0.1-0.4-0.1-0.7-0.2c-0.3-0.1-0.6-0.2-0.8-0.3c-0.2-0.1-0.4-0.2-0.6-0.3c-0.1-0.1-0.3-0.3-0.3-0.5c-0.1-0.2-0.1-0.4-0.1-0.6
			c0-0.3,0.1-0.6,0.2-0.8c0.1-0.2,0.3-0.5,0.5-0.6c0.2-0.2,0.5-0.3,0.7-0.4c0.3-0.1,0.6-0.1,0.9-0.1c0.4,0,0.8,0.1,1.2,0.2
			c0.4,0.1,0.7,0.3,1,0.5C187.3,23.4,187.1,23.7,186.9,24.2z" class="st2"></path>
		<path d="M125.2,39.4c-0.5,0-0.9-0.1-1.2-0.3c-0.4-0.2-0.7-0.4-1-0.7c-0.3-0.3-0.5-0.6-0.6-1c-0.1-0.4-0.2-0.8-0.2-1.2
			c0-0.4,0.1-0.8,0.2-1.2c0.2-0.4,0.4-0.7,0.6-1c0.3-0.3,0.6-0.5,1-0.7c0.4-0.2,0.8-0.3,1.2-0.3c0.5,0,0.9,0.1,1.2,0.3
			c0.4,0.2,0.7,0.4,1,0.7c0.3,0.3,0.5,0.6,0.6,1c0.1,0.4,0.2,0.8,0.2,1.2c0,0.4-0.1,0.8-0.2,1.2c-0.2,0.4-0.4,0.7-0.6,1
			c-0.3,0.3-0.6,0.5-1,0.7C126.1,39.3,125.6,39.4,125.2,39.4z M123.4,36.2c0,0.3,0,0.5,0.1,0.8c0.1,0.3,0.2,0.5,0.4,0.7
			c0.2,0.2,0.4,0.4,0.6,0.5c0.2,0.1,0.5,0.2,0.8,0.2c0.3,0,0.6-0.1,0.8-0.2c0.2-0.1,0.4-0.3,0.6-0.5c0.2-0.2,0.3-0.4,0.4-0.7
			c0.1-0.2,0.1-0.5,0.1-0.8c0-0.3,0-0.5-0.1-0.8c-0.1-0.3-0.2-0.5-0.4-0.7c-0.2-0.2-0.3-0.4-0.6-0.5c-0.2-0.1-0.5-0.2-0.8-0.2
			c-0.3,0-0.6,0.1-0.8,0.2c-0.2,0.1-0.4,0.3-0.6,0.5c-0.1,0.2-0.3,0.4-0.3,0.7C123.4,35.7,123.4,36,123.4,36.2z" class="st2"></path>
		<path d="M129.2,39.4c0-1,0-3.1,0-6.3c0.7,0,2.1,0,4.2,0c0,0.2,0,0.5,0,1.1c-0.5,0-1.5,0-3,0c0,0.3,0,0.8,0,1.6
			c0.4,0,1.2,0,2.5,0c0,0.2,0,0.5,0,1c-0.4,0-1.2,0-2.5,0c0,0.4,0,1.3,0,2.6C130.2,39.4,129.8,39.4,129.2,39.4z" class="st2"></path>
		<path d="M134.3,39.4c0-1,0-3.1,0-6.3c0.7,0,2.1,0,4.2,0c0,0.2,0,0.5,0,1.1c-0.5,0-1.5,0-3,0c0,0.3,0,0.8,0,1.6
			c0.4,0,1.2,0,2.5,0c0,0.2,0,0.5,0,1c-0.4,0-1.2,0-2.5,0c0,0.4,0,1.3,0,2.6C135.3,39.4,134.9,39.4,134.3,39.4z" class="st2"></path>
		<path d="M139.3,39.4c0-1,0-3.1,0-6.3c0.2,0,0.6,0,1.2,0c0,1,0,3.1,0,6.3C140.3,39.4,139.9,39.4,139.3,39.4z" class="st2"></path>
		<path d="M141.5,36.2c0-0.4,0.1-0.8,0.2-1.1c0.1-0.4,0.3-0.7,0.6-1c0.3-0.3,0.6-0.5,1-0.7c0.4-0.2,0.8-0.3,1.3-0.3
			c0.6,0,1.1,0.1,1.5,0.4c0.4,0.3,0.7,0.6,0.9,1c-0.2,0.1-0.5,0.4-0.9,0.6c-0.1-0.2-0.2-0.3-0.3-0.4c-0.1-0.1-0.2-0.2-0.4-0.3
			c-0.1-0.1-0.3-0.1-0.4-0.2c-0.1,0-0.3,0-0.4,0c-0.3,0-0.6,0.1-0.8,0.2c-0.2,0.1-0.4,0.3-0.6,0.5c-0.1,0.2-0.3,0.4-0.3,0.7
			c-0.1,0.2-0.1,0.5-0.1,0.7c0,0.3,0,0.5,0.1,0.8c0.1,0.3,0.2,0.5,0.4,0.7c0.2,0.2,0.4,0.4,0.6,0.5c0.2,0.1,0.5,0.2,0.7,0.2
			c0.1,0,0.3,0,0.4-0.1c0.2,0,0.3-0.1,0.4-0.2c0.1-0.1,0.3-0.2,0.4-0.3c0.1-0.1,0.2-0.3,0.3-0.4c0.2,0.1,0.6,0.3,1,0.6
			c-0.1,0.2-0.2,0.4-0.4,0.6c-0.2,0.2-0.4,0.3-0.6,0.5c-0.2,0.1-0.5,0.2-0.7,0.3c-0.3,0.1-0.5,0.1-0.8,0.1c-0.4,0-0.9-0.1-1.2-0.3
			c-0.4-0.2-0.7-0.4-1-0.7c-0.3-0.3-0.5-0.6-0.6-1C141.5,37,141.5,36.6,141.5,36.2z" class="st2"></path>
		<path d="M152.2,38.3c0,0.2,0,0.5,0,1.1c-0.7,0-2.2,0-4.3,0c0-1,0-3.1,0-6.3c0.7,0,2.1,0,4.3,0c0,0.2,0,0.5,0,1.1
			c-0.5,0-1.5,0-3,0c0,0.3,0,0.8,0,1.5c0.4,0,1.3,0,2.6,0c0,0.2,0,0.5,0,1c-0.4,0-1.3,0-2.6,0c0,0.3,0,0.8,0,1.6
			C149.6,38.3,150.7,38.3,152.2,38.3z" class="st2"></path>
	</g>
	<line y2="40" x2="115.5" y1="11.3" x1="115.5" class="st3"></line>
</g>
</svg>
